<svg width="118" height="36" viewBox="0 0 118 36" fill="none" xmlns="http://www.w3.org/2000/svg">
<path d="M13.6425 29.1155C13.8795 29.1155 14.1 29.1334 14.3073 29.1675L15.7966 27.4337H16.4697L14.8553 29.2894C15.3457 29.4405 15.7275 29.6989 15.9991 30.0645C16.2706 30.4301 16.4862 30.9176 16.6458 31.5302H15.9711C15.8888 31.1679 15.7835 30.8656 15.6568 30.6235C15.53 30.3814 15.3704 30.1864 15.1779 30.0369C14.9853 29.8874 14.7632 29.7834 14.5081 29.7217C14.2547 29.6599 13.9634 29.6274 13.6392 29.6209V31.5302H13.0402V27.4321H13.6425V29.1155Z" fill="#0B0B0C"/>
<path d="M16.6744 31.5511H15.9602L15.9569 31.5365C15.8746 31.1774 15.7693 30.8752 15.6442 30.6347C15.5191 30.3958 15.3595 30.2008 15.1703 30.0546C14.981 29.9083 14.7589 29.8027 14.5087 29.7426C14.2619 29.6825 13.9788 29.65 13.6629 29.6435V31.5511H13.0227V27.4157H13.6629V29.0975C13.8883 29.0991 14.1039 29.1154 14.3014 29.1479L15.789 27.4157H16.5131L14.8905 29.2811C15.3694 29.4338 15.7479 29.6938 16.0161 30.0546C16.2877 30.4202 16.5065 30.9158 16.6662 31.5268L16.6744 31.5511ZM15.9898 31.5138H16.6234C16.4654 30.9174 16.2515 30.4348 15.9849 30.0773C15.7166 29.7182 15.3348 29.4598 14.851 29.3087L14.823 29.3006L16.4292 27.4547H15.8055L14.3145 29.1901L14.3047 29.1885C14.1006 29.1544 13.8768 29.1365 13.6431 29.1365H13.6234V27.4563H13.0589V31.5154H13.6234V29.6061H13.6431C13.9689 29.6126 14.2619 29.6467 14.5169 29.7068C14.772 29.7686 15.0008 29.8758 15.1933 30.0253C15.3858 30.1748 15.5488 30.3747 15.6771 30.6184C15.8022 30.8573 15.9075 31.1579 15.9898 31.5138Z" fill="#0B0B0C"/>
<path d="M22.0113 29.4841C22.0113 29.7928 21.957 30.0788 21.8467 30.3421C21.7364 30.6053 21.585 30.8328 21.3909 31.0246C21.195 31.2179 20.963 31.3674 20.6898 31.4747C20.4183 31.5819 20.1188 31.6372 19.7946 31.6372C19.4753 31.6372 19.1791 31.5835 18.9076 31.4747C18.636 31.3674 18.4024 31.2163 18.2065 31.0246C18.0107 30.8312 17.8593 30.6037 17.7507 30.3421C17.6404 30.0788 17.5861 29.7928 17.5861 29.4841C17.5861 29.1754 17.6404 28.8894 17.7507 28.6261C17.8593 28.3629 18.0123 28.1354 18.2065 27.9437C18.4024 27.7503 18.6344 27.6008 18.9076 27.4935C19.1791 27.3863 19.4753 27.3311 19.7946 27.3311C20.1188 27.3311 20.4183 27.3847 20.6898 27.4935C20.9613 27.6024 21.195 27.7519 21.3909 27.9437C21.5867 28.137 21.7381 28.3645 21.8467 28.6261C21.957 28.8878 22.0113 29.1737 22.0113 29.4841ZM21.3728 29.4841C21.3728 29.2566 21.3365 29.0421 21.2625 28.8406C21.1884 28.6391 21.0831 28.4636 20.9482 28.3158C20.8116 28.1663 20.647 28.0493 20.4512 27.9615C20.2554 27.8738 20.0381 27.8299 19.7946 27.8299C19.5527 27.8299 19.3354 27.8738 19.1429 27.9615C18.9504 28.0493 18.7874 28.1679 18.6509 28.3158C18.5143 28.4653 18.4106 28.6391 18.3365 28.8406C18.2625 29.0421 18.2263 29.2566 18.2263 29.4841C18.2263 29.7116 18.2625 29.9261 18.3365 30.1276C18.4106 30.3291 18.5159 30.5046 18.6509 30.6524C18.7874 30.8019 18.9504 30.9189 19.1429 31.0034C19.3354 31.0879 19.5527 31.1302 19.7946 31.1302C20.0365 31.1302 20.2554 31.0879 20.4512 31.0034C20.647 30.9189 20.8116 30.8019 20.9482 30.6524C21.0848 30.5029 21.1884 30.3291 21.2625 30.1276C21.3365 29.9261 21.3728 29.7116 21.3728 29.4841Z" fill="#0B0B0C"/>
<path d="M19.7952 31.6565C19.4743 31.6565 19.1748 31.6013 18.9016 31.494C18.6284 31.3852 18.3915 31.2324 18.1956 31.0391C17.9998 30.8457 17.8451 30.6133 17.7349 30.3501C17.6246 30.0868 17.5686 29.796 17.5686 29.4856C17.5686 29.1752 17.6246 28.8844 17.7349 28.6211C17.8451 28.3579 17.9998 28.1255 18.1956 27.9321C18.3915 27.7388 18.6284 27.586 18.9016 27.4772C19.1748 27.3683 19.4759 27.313 19.7952 27.313C20.121 27.313 20.4255 27.3683 20.697 27.4755C20.9702 27.5844 21.2088 27.7372 21.4046 27.9305C21.6005 28.1239 21.7552 28.3563 21.8654 28.6195C21.9757 28.8827 22.0316 29.1736 22.0316 29.484C22.0316 29.7943 21.9757 30.0852 21.8654 30.3484C21.7552 30.6117 21.6005 30.8441 21.4046 31.0374C21.2088 31.2308 20.9702 31.3835 20.6987 31.4924C20.4255 31.6013 20.121 31.6565 19.7952 31.6565ZM19.7952 27.3488C19.4792 27.3488 19.1847 27.4024 18.9164 27.5097C18.6482 27.6169 18.4145 27.7664 18.222 27.9565C18.0294 28.1466 17.878 28.3741 17.7694 28.6325C17.6608 28.8909 17.6065 29.1785 17.6065 29.484C17.6065 29.7895 17.6608 30.0755 17.7694 30.3354C17.878 30.5938 18.0294 30.8229 18.222 31.0114C18.4145 31.2015 18.6482 31.351 18.9164 31.4583C19.1847 31.5655 19.4809 31.6192 19.7968 31.6192C20.1177 31.6192 20.4173 31.5655 20.6855 31.4583C20.9537 31.3527 21.1874 31.2015 21.38 31.0114C21.5725 30.8213 21.7239 30.5938 21.8325 30.3354C21.9411 30.0755 21.9954 29.7895 21.9954 29.484C21.9954 29.1785 21.9411 28.8925 21.8325 28.6325C21.7239 28.3725 21.5725 28.145 21.38 27.9565C21.1874 27.7664 20.9537 27.6169 20.6855 27.5097C20.4156 27.4024 20.1177 27.3488 19.7952 27.3488ZM19.7952 31.1479C19.5516 31.1479 19.3295 31.104 19.1353 31.0196C18.9411 30.9351 18.7733 30.8148 18.6367 30.6653C18.5001 30.5158 18.3931 30.3371 18.3174 30.134C18.2434 29.9325 18.2055 29.7131 18.2055 29.484C18.2055 29.2549 18.2434 29.0355 18.3174 28.834C18.3915 28.6309 18.4984 28.4521 18.6367 28.3026C18.7733 28.1531 18.9411 28.0313 19.1353 27.9435C19.3295 27.8558 19.55 27.8103 19.7952 27.8103C20.0388 27.8103 20.2626 27.8558 20.46 27.9435C20.6559 28.0313 20.8254 28.1531 20.9636 28.3026C21.1002 28.4521 21.2072 28.6309 21.2829 28.834C21.3569 29.0371 21.3948 29.2549 21.3948 29.484C21.3948 29.7131 21.3569 29.9308 21.2829 30.134C21.2088 30.3371 21.1018 30.5158 20.9636 30.6653C20.8254 30.8164 20.6575 30.9351 20.46 31.0196C20.2626 31.1057 20.0404 31.1479 19.7952 31.1479ZM19.7952 27.8477C19.5566 27.8477 19.3394 27.8915 19.1518 27.9776C18.9625 28.0638 18.7996 28.1808 18.6663 28.327C18.533 28.4733 18.4277 28.6471 18.3553 28.847C18.2829 29.0452 18.245 29.2597 18.245 29.484C18.245 29.7082 18.2812 29.9227 18.3553 30.121C18.4277 30.3192 18.533 30.4931 18.6663 30.6393C18.7996 30.7856 18.9641 30.9026 19.1518 30.9854C19.341 31.0683 19.5566 31.1105 19.7952 31.1105C20.0338 31.1105 20.2527 31.0683 20.4436 30.9854C20.6345 30.9026 20.799 30.7856 20.934 30.6393C21.0673 30.4931 21.1726 30.3192 21.245 30.121C21.3174 29.9227 21.3553 29.7082 21.3553 29.484C21.3553 29.2597 21.3191 29.0452 21.245 28.847C21.1726 28.6488 21.0673 28.4749 20.934 28.327C20.8007 28.1808 20.6361 28.0638 20.4436 27.9776C20.2527 27.8915 20.0338 27.8477 19.7952 27.8477Z" fill="#0B0B0C"/>
<path d="M23.8753 31.5329H23.273V27.4348H26.7749V31.5329H26.1726V27.9353H23.8753V31.5329Z" fill="#0B0B0C"/>
<path d="M26.1535 31.5507V27.9531H23.8957V31.5507H23.2555V27.4152H26.7953V31.5507H26.1535ZM26.1913 31.5133H26.7558V27.4542H23.2917V31.5133H23.8562V27.9157H26.1913V31.5133Z" fill="#0B0B0C"/>
<path d="M31.4654 28.1973L28.9213 31.5333H28.3009V27.4352H28.9213V30.6478L31.4654 27.4352H32.0858V31.5333H31.4654V28.1973Z" fill="#0B0B0C"/>
<path d="M32.1061 31.5512H31.4478V28.2525L28.9316 31.5512H28.2832V27.4157H28.9415V30.5924L31.4577 27.4157H32.1061V31.5512ZM31.484 31.5138H32.0666V27.4547H31.4741L28.9004 30.7029V27.4547H28.3178V31.5138H28.9102L31.484 28.1404V31.5138Z" fill="#0B0B0C"/>
<path d="M34.2496 33.634H33.6473V27.4349H34.2496V28.1433H34.2759C34.4471 27.8752 34.6758 27.6721 34.9638 27.5356C35.2501 27.3991 35.5414 27.3292 35.8376 27.3292C36.1635 27.3292 36.4564 27.3845 36.7197 27.495C36.983 27.6055 37.2068 27.7582 37.3928 27.95C37.5787 28.1417 37.7235 28.3708 37.8272 28.6324C37.9309 28.8957 37.9819 29.1784 37.9819 29.4823C37.9819 29.7862 37.9309 30.0689 37.8272 30.3321C37.7235 30.5954 37.5787 30.8229 37.3928 31.0146C37.2068 31.2064 36.9813 31.3591 36.7197 31.4696C36.4564 31.5801 36.1618 31.6354 35.8376 31.6354C35.5414 31.6354 35.2501 31.5671 34.9638 31.429C34.6774 31.2925 34.4487 31.0942 34.2759 30.8375H34.2496V33.634ZM37.3434 29.4839C37.3434 29.2564 37.3072 29.0419 37.2364 28.8404C37.1657 28.639 37.0636 28.4635 36.9303 28.3156C36.797 28.1661 36.6325 28.0491 36.4383 27.9613C36.2441 27.8736 36.0219 27.8297 35.7734 27.8297C35.5431 27.8297 35.3308 27.872 35.1349 27.9565C34.9391 28.041 34.7712 28.158 34.6297 28.3058C34.4882 28.4553 34.3763 28.6292 34.2973 28.8307C34.2167 29.0322 34.1772 29.2499 34.1772 29.4823C34.1772 29.7163 34.2167 29.9324 34.2973 30.1339C34.3763 30.3354 34.4882 30.5093 34.6297 30.6555C34.7712 30.8018 34.9408 30.9171 35.1349 31.0016C35.3308 31.0861 35.5431 31.1284 35.7734 31.1284C36.0219 31.1284 36.2441 31.0861 36.4383 31.0016C36.6341 30.9171 36.797 30.8001 36.9303 30.6506C37.0636 30.5011 37.1657 30.3273 37.2364 30.1258C37.3088 29.9259 37.3434 29.7114 37.3434 29.4839Z" fill="#0B0B0C"/>
<path d="M34.2668 33.6518H33.6266V27.4153H34.2668V28.1205C34.4379 27.8573 34.67 27.6542 34.953 27.5177C35.241 27.3795 35.5372 27.3097 35.8351 27.3097C36.1609 27.3097 36.4604 27.3665 36.7254 27.477C36.9903 27.5892 37.2191 27.7435 37.405 27.9369C37.5926 28.1303 37.7391 28.3626 37.8428 28.6259C37.9464 28.8891 37.9991 29.1784 37.9991 29.4822C37.9991 29.7861 37.9464 30.0737 37.8428 30.3386C37.7391 30.6018 37.591 30.8342 37.405 31.0276C37.2174 31.2209 36.9887 31.3753 36.7254 31.4874C36.4604 31.5995 36.1609 31.6548 35.8351 31.6548C35.5389 31.6548 35.241 31.5849 34.953 31.4468C34.6683 31.3103 34.4379 31.1137 34.2668 30.8618V33.6518ZM33.6645 33.6145H34.2289V30.8212H34.2849L34.2898 30.8293C34.4577 31.0828 34.6864 31.2794 34.9695 31.4143C35.2525 31.5492 35.5438 31.6174 35.8351 31.6174C36.156 31.6174 36.4505 31.5622 36.7105 31.4533C36.9706 31.3444 37.1944 31.1917 37.3787 31.0016C37.5613 30.8114 37.7062 30.5839 37.8098 30.3256C37.9119 30.0656 37.9645 29.7828 37.9645 29.4839C37.9645 29.1849 37.9135 28.9005 37.8098 28.6421C37.7078 28.3821 37.563 28.1546 37.3787 27.9662C37.196 27.776 36.9706 27.6249 36.7105 27.5144C36.4505 27.4055 36.156 27.3503 35.8351 27.3503C35.5438 27.3503 35.2525 27.4185 34.9695 27.5534C34.6881 27.6883 34.4593 27.8914 34.2898 28.1546L34.2849 28.1628H34.2289V27.4543H33.6645V33.6145ZM35.7725 31.1478C35.5405 31.1478 35.3233 31.1039 35.1258 31.0194C34.93 30.9349 34.7572 30.8163 34.614 30.6701C34.4708 30.5238 34.3573 30.3451 34.2783 30.1436C34.1977 29.9405 34.1565 29.7195 34.1565 29.4839C34.1565 29.2482 34.1977 29.0272 34.2783 28.8241C34.3589 28.621 34.4708 28.4423 34.614 28.2928C34.7572 28.1433 34.9283 28.023 35.1258 27.9385C35.3233 27.8524 35.5405 27.8102 35.7725 27.8102C36.0227 27.8102 36.2481 27.8557 36.4456 27.9434C36.6431 28.0312 36.8093 28.153 36.9442 28.3025C37.0775 28.452 37.1828 28.6308 37.2536 28.8339C37.3244 29.0354 37.3606 29.2547 37.3606 29.4839C37.3606 29.713 37.3244 29.9307 37.2536 30.1338C37.1828 30.337 37.0775 30.5157 36.9442 30.6652C36.8093 30.8163 36.6414 30.9349 36.4456 31.0194C36.2498 31.1056 36.0227 31.1478 35.7725 31.1478ZM35.7725 27.8475C35.5454 27.8475 35.3331 27.8898 35.1423 27.9727C34.9497 28.0555 34.7819 28.1725 34.6436 28.3188C34.5037 28.465 34.3935 28.6405 34.3145 28.8387C34.2355 29.037 34.196 29.2547 34.196 29.4839C34.196 29.713 34.2355 29.9307 34.3145 30.129C34.3935 30.3272 34.5037 30.5011 34.6436 30.6441C34.7835 30.7871 34.9514 30.9024 35.1423 30.9853C35.3331 31.0682 35.5454 31.1104 35.7725 31.1104C36.0177 31.1104 36.2382 31.0682 36.4291 30.9853C36.62 30.9024 36.7846 30.7854 36.9146 30.6392C37.0446 30.4929 37.1466 30.3191 37.2174 30.1208C37.2882 29.9226 37.3227 29.7081 37.3227 29.4839C37.3227 29.2596 37.2865 29.0451 37.2174 28.8469C37.1483 28.6486 37.0463 28.4748 36.9146 28.3285C36.7846 28.1823 36.62 28.0653 36.4291 27.9792C36.2382 27.8914 36.0177 27.8475 35.7725 27.8475Z" fill="#0B0B0C"/>
<path d="M43.3988 29.4841C43.3988 29.7928 43.3445 30.0788 43.2342 30.3421C43.1239 30.6053 42.9725 30.8328 42.7784 31.0246C42.5842 31.2163 42.3505 31.3674 42.0773 31.4747C41.8058 31.5819 41.5063 31.6372 41.1821 31.6372C40.8628 31.6372 40.5666 31.5835 40.2951 31.4747C40.0235 31.3674 39.7899 31.2163 39.594 31.0246C39.3982 30.8312 39.2468 30.6037 39.1382 30.3421C39.0279 30.0788 38.9736 29.7928 38.9736 29.4841C38.9736 29.1754 39.0279 28.8894 39.1382 28.6261C39.2468 28.3629 39.3998 28.1354 39.594 27.9437C39.7899 27.7503 40.0219 27.6008 40.2951 27.4935C40.5666 27.3863 40.8628 27.3311 41.1821 27.3311C41.5063 27.3311 41.8058 27.3847 42.0773 27.4935C42.3488 27.6024 42.5825 27.7519 42.7784 27.9437C42.9742 28.137 43.1256 28.3645 43.2342 28.6261C43.3445 28.8878 43.3988 29.1737 43.3988 29.4841ZM42.7603 29.4841C42.7603 29.2566 42.724 29.0421 42.65 28.8406C42.5759 28.6391 42.4706 28.4636 42.3357 28.3158C42.1991 28.1663 42.0345 28.0493 41.8387 27.9615C41.6429 27.8738 41.4256 27.8299 41.1821 27.8299C40.9402 27.8299 40.7229 27.8738 40.5304 27.9615C40.3379 28.0493 40.1749 28.1679 40.0384 28.3158C39.9018 28.4653 39.7981 28.6391 39.724 28.8406C39.65 29.0421 39.6138 29.2566 39.6138 29.4841C39.6138 29.7116 39.65 29.9261 39.724 30.1276C39.7981 30.3291 39.9034 30.5046 40.0384 30.6524C40.1749 30.8019 40.3379 30.9189 40.5304 31.0034C40.7229 31.0879 40.9402 31.1302 41.1821 31.1302C41.424 31.1302 41.6429 31.0879 41.8387 31.0034C42.0345 30.9189 42.1991 30.8019 42.3357 30.6524C42.4723 30.5029 42.5759 30.3291 42.65 30.1276C42.724 29.9261 42.7603 29.7116 42.7603 29.4841Z" fill="#0B0B0C"/>
<path d="M41.1827 31.6565C40.8618 31.6565 40.5623 31.6013 40.2891 31.494C40.0159 31.3852 39.779 31.2324 39.5831 31.0391C39.3873 30.8457 39.2326 30.6133 39.1223 30.3501C39.0121 30.0868 38.9561 29.796 38.9561 29.4856C38.9561 29.1752 39.0121 28.8844 39.1223 28.6211C39.2326 28.3579 39.3873 28.1255 39.5831 27.9321C39.779 27.7388 40.0159 27.586 40.2891 27.4772C40.5623 27.3683 40.8634 27.313 41.1827 27.313C41.5085 27.313 41.813 27.3683 42.0845 27.4755C42.3577 27.5844 42.5963 27.7372 42.7921 27.9305C42.988 28.1239 43.1427 28.3563 43.2529 28.6195C43.3632 28.8827 43.4191 29.1736 43.4191 29.484C43.4191 29.7943 43.3632 30.0852 43.2529 30.3484C43.1427 30.6117 42.988 30.8441 42.7921 31.0374C42.5963 31.2308 42.3577 31.3835 42.0862 31.4924C41.813 31.6013 41.5085 31.6565 41.1827 31.6565ZM41.1827 27.3488C40.8667 27.3488 40.5722 27.4024 40.3039 27.5097C40.0357 27.6169 39.802 27.7664 39.6095 27.9565C39.4169 28.1466 39.2655 28.3741 39.1569 28.6325C39.0483 28.8909 38.994 29.1785 38.994 29.484C38.994 29.7895 39.0483 30.0755 39.1569 30.3354C39.2655 30.5938 39.4169 30.8229 39.6095 31.0114C39.802 31.2015 40.0357 31.351 40.3039 31.4583C40.5722 31.5655 40.8684 31.6192 41.1843 31.6192C41.5052 31.6192 41.8048 31.5655 42.073 31.4583C42.3412 31.3527 42.5749 31.2015 42.7675 31.0114C42.96 30.8213 43.1114 30.5938 43.22 30.3354C43.3286 30.0755 43.3829 29.7895 43.3829 29.484C43.3829 29.1785 43.3286 28.8925 43.22 28.6325C43.1114 28.3725 42.96 28.145 42.7675 27.9565C42.5749 27.7664 42.3412 27.6169 42.073 27.5097C41.8031 27.4024 41.5036 27.3488 41.1827 27.3488ZM41.1827 31.1479C40.9391 31.1479 40.717 31.104 40.5228 31.0196C40.3286 30.9351 40.1608 30.8148 40.0242 30.6653C39.8876 30.5158 39.7806 30.3371 39.7049 30.134C39.6309 29.9325 39.593 29.7131 39.593 29.484C39.593 29.2549 39.6309 29.0355 39.7049 28.834C39.779 28.6309 39.8859 28.4521 40.0242 28.3026C40.1608 28.1531 40.3286 28.0313 40.5228 27.9435C40.717 27.8558 40.9375 27.8103 41.1827 27.8103C41.4263 27.8103 41.6501 27.8558 41.8475 27.9435C42.0434 28.0313 42.2129 28.1531 42.3511 28.3026C42.4877 28.4521 42.5947 28.6309 42.6704 28.834C42.7444 29.0371 42.7823 29.2549 42.7823 29.484C42.7823 29.7131 42.7444 29.9308 42.6704 30.134C42.5963 30.3371 42.4893 30.5158 42.3511 30.6653C42.2129 30.8164 42.045 30.9351 41.8475 31.0196C41.6501 31.1057 41.4263 31.1479 41.1827 31.1479ZM41.1827 27.8477C40.9441 27.8477 40.7269 27.8915 40.5392 27.9776C40.35 28.0638 40.1871 28.1808 40.0538 28.327C39.9205 28.4733 39.8152 28.6471 39.7428 28.847C39.6704 29.0452 39.6325 29.2597 39.6325 29.484C39.6325 29.7082 39.6687 29.9227 39.7428 30.121C39.8152 30.3192 39.9205 30.4931 40.0538 30.6393C40.1871 30.7856 40.3516 30.9026 40.5392 30.9854C40.7285 31.0683 40.9441 31.1105 41.1827 31.1105C41.4213 31.1105 41.6402 31.0683 41.8311 30.9854C42.022 30.9026 42.1865 30.7856 42.3215 30.6393C42.4548 30.4931 42.5601 30.3192 42.6325 30.121C42.7049 29.9227 42.7428 29.7082 42.7428 29.484C42.7428 29.2597 42.7066 29.0452 42.6325 28.847C42.5601 28.6488 42.4548 28.4749 42.3215 28.327C42.1882 28.1808 42.0236 28.0638 41.8311 27.9776C41.6402 27.8915 41.4213 27.8477 41.1827 27.8477Z" fill="#0B0B0C"/>
<path d="M46.557 31.5333H44.6596V27.4352H46.45C46.9766 27.4352 47.3667 27.536 47.6201 27.7375C47.8735 27.939 48.0019 28.2055 48.0019 28.5386C48.0019 28.6897 47.9788 28.8181 47.9311 28.9188C47.8834 29.0212 47.8176 29.1057 47.732 29.1723C47.6464 29.2389 47.5477 29.2942 47.4358 29.3348C47.3239 29.3754 47.2054 29.4144 47.082 29.4485C47.235 29.4599 47.3798 29.4859 47.5164 29.5282C47.653 29.5688 47.7715 29.6289 47.8752 29.7069C47.9788 29.7865 48.0595 29.8856 48.1187 30.0043C48.178 30.1245 48.2076 30.2691 48.2076 30.4381C48.2076 30.7712 48.0693 31.0361 47.7912 31.2344C47.5115 31.4326 47.1017 31.5333 46.557 31.5333ZM46.4155 29.247C46.7117 29.247 46.9437 29.2015 47.1116 29.1105C47.2794 29.0196 47.365 28.8392 47.365 28.5678C47.365 28.4151 47.3321 28.2948 47.2679 28.2071C47.2021 28.1193 47.1116 28.0527 46.9931 28.0088C46.8746 27.965 46.7331 27.9373 46.5669 27.926C46.4007 27.9146 46.218 27.9081 46.0172 27.9081H45.2635V29.247H46.4155ZM45.2619 31.0605H46.0337C46.2526 31.0605 46.4533 31.0556 46.636 31.0475C46.8187 31.0394 46.9783 31.0117 47.1149 30.9679C47.2515 30.924 47.3568 30.8541 47.4341 30.7615C47.5115 30.6673 47.5493 30.5356 47.5493 30.365C47.5493 30.0823 47.444 29.8986 47.235 29.8093C47.0244 29.7215 46.743 29.6777 46.3875 29.6777H45.2619V31.0605Z" fill="#0B0B0C"/>
<path d="M46.5561 31.5511H44.6389V27.4157H46.4491C46.9774 27.4157 47.3756 27.518 47.6307 27.7211C47.889 27.9259 48.0191 28.2005 48.0191 28.5369C48.0191 28.6912 47.9944 28.8212 47.9467 28.9252C47.8989 29.0292 47.8298 29.117 47.7409 29.1868C47.6537 29.2551 47.5517 29.3103 47.4381 29.351C47.3542 29.3818 47.267 29.4111 47.1748 29.4387C47.2933 29.4533 47.4085 29.4761 47.5155 29.5086C47.6537 29.5492 47.7755 29.611 47.8808 29.6906C47.9861 29.7702 48.0701 29.8726 48.131 29.9944C48.1919 30.1163 48.2215 30.2642 48.2215 30.4364C48.2215 30.7744 48.0783 31.0474 47.7969 31.2489C47.5204 31.4504 47.1024 31.5511 46.5561 31.5511ZM46.5561 31.5138C47.0926 31.5138 47.504 31.4147 47.7771 31.2197C48.0487 31.0263 48.1853 30.763 48.1853 30.4381C48.1853 30.2723 48.1556 30.1293 48.098 30.0123C48.0405 29.8953 47.9598 29.7978 47.8594 29.7215C47.759 29.6451 47.6389 29.585 47.5056 29.5443C47.3723 29.5037 47.2275 29.4777 47.0745 29.4663L46.9691 29.4582L47.0712 29.429C47.1946 29.3948 47.3131 29.3558 47.425 29.3152C47.5352 29.2746 47.6323 29.2226 47.7163 29.156C47.7985 29.091 47.8644 29.0081 47.9104 28.909C47.9565 28.8099 47.9796 28.6847 47.9796 28.5352C47.9796 28.2103 47.8545 27.9454 47.606 27.7488C47.3559 27.5505 46.9658 27.4514 46.4475 27.4514H44.6751V31.5138H46.5561ZM46.0328 31.0783H45.2429V29.6581H46.3882C46.7437 29.6581 47.0317 29.7036 47.2423 29.7913C47.4595 29.8823 47.5681 30.0757 47.5681 30.3633C47.5681 30.5372 47.5287 30.6753 47.448 30.7712C47.369 30.867 47.2588 30.9385 47.1205 30.984C46.984 31.0279 46.821 31.0555 46.6367 31.0637C46.4541 31.0734 46.25 31.0783 46.0328 31.0783ZM45.2807 31.0409H46.0328C46.25 31.0409 46.4524 31.036 46.6351 31.0279C46.8161 31.0198 46.9741 30.9922 47.109 30.9499C47.2407 30.9077 47.3443 30.8394 47.42 30.7484C47.4941 30.6591 47.5303 30.5291 47.5303 30.3633C47.5303 30.0871 47.4316 29.9116 47.2275 29.8255C47.0202 29.7393 46.7387 29.6955 46.3882 29.6955H45.2807V31.0409ZM46.4146 29.2665H45.2429V27.8901H46.0163C46.2171 27.8901 46.403 27.8966 46.5676 27.908C46.7338 27.9194 46.8786 27.9486 46.9988 27.9925C47.1205 28.038 47.216 28.1063 47.2818 28.1973C47.3493 28.2883 47.3822 28.4134 47.3822 28.5694C47.3822 28.8456 47.2933 29.0341 47.1189 29.1284C46.9494 29.2193 46.7124 29.2665 46.4146 29.2665ZM45.2807 29.2291H46.4146C46.7058 29.2291 46.9362 29.1836 47.1008 29.0942C47.2621 29.0065 47.3443 28.831 47.3443 28.5694C47.3443 28.4215 47.3131 28.3029 47.2505 28.22C47.188 28.1355 47.0975 28.0705 46.984 28.0283C46.8671 27.9844 46.7256 27.9568 46.5643 27.9454C46.3997 27.934 46.2154 27.9275 46.0163 27.9275H45.2824V29.2291H45.2807Z" fill="#0B0B0C"/>
<path d="M52.1055 28.8812C52.1055 28.5286 52.0117 28.2637 51.8224 28.0898C51.6332 27.916 51.3583 27.8299 50.9979 27.8299C50.7495 27.8299 50.5191 27.8737 50.3068 27.9615C50.0945 28.0492 49.9135 28.1662 49.7654 28.3125L49.428 27.9192C49.5992 27.7502 49.8263 27.6105 50.106 27.4984C50.3874 27.3879 50.705 27.3326 51.0588 27.3326C51.2826 27.3326 51.4933 27.3635 51.6891 27.4252C51.8849 27.487 52.0561 27.578 52.2042 27.7015C52.3523 27.8234 52.4675 27.9793 52.5498 28.1662C52.6321 28.3531 52.6732 28.5725 52.6732 28.8227V30.6183C52.6732 30.7759 52.6798 30.94 52.6913 31.109C52.7028 31.278 52.7209 31.421 52.744 31.538H52.2026C52.1845 31.4389 52.1696 31.3316 52.1581 31.2146C52.1466 31.0976 52.14 30.9839 52.14 30.8734H52.1219C51.9327 31.148 51.7187 31.3446 51.4785 31.4649C51.2399 31.5851 50.9502 31.6436 50.6145 31.6436C50.4549 31.6436 50.2903 31.6209 50.1225 31.577C49.9546 31.5331 49.7999 31.4616 49.6617 31.3625C49.5234 31.2634 49.4083 31.1334 49.3161 30.9758C49.2239 30.8181 49.1795 30.6248 49.1795 30.3956C49.1795 30.0788 49.2602 29.8285 49.4231 29.6449C49.586 29.4613 49.8032 29.3232 50.0747 29.2322C50.3463 29.1412 50.6589 29.0827 51.0095 29.0567C51.3616 29.0307 51.727 29.0177 52.1038 29.0177V28.8812H52.1055ZM51.9277 29.484C51.6792 29.484 51.4291 29.4938 51.179 29.5149C50.9272 29.536 50.7001 29.5767 50.496 29.6368C50.292 29.6985 50.1258 29.7863 49.9958 29.9033C49.8657 30.0203 49.7999 30.1747 49.7999 30.368C49.7999 30.5143 49.8279 30.6361 49.8839 30.7353C49.9398 30.8344 50.0155 30.914 50.1093 30.9758C50.2031 31.0375 50.3084 31.0814 50.4236 31.1074C50.5388 31.1334 50.6557 31.1464 50.7741 31.1464C50.9864 31.1464 51.1757 31.1106 51.3419 31.0375C51.5081 30.9644 51.6463 30.8653 51.7582 30.7401C51.8701 30.615 51.9557 30.4704 52.015 30.3063C52.0742 30.1438 52.1038 29.9715 52.1038 29.7895V29.4824H51.9277V29.484Z" fill="#0B0B0C"/>
<path d="M50.6169 31.6566C50.4572 31.6566 50.2894 31.6338 50.1199 31.59C49.9504 31.5461 49.7924 31.473 49.6525 31.3722C49.5126 31.2715 49.3942 31.1399 49.302 30.979C49.2098 30.8181 49.1621 30.6215 49.1621 30.3891C49.1621 30.069 49.2461 29.8123 49.4106 29.6254C49.5752 29.4385 49.7973 29.2988 50.0705 29.2078C50.3421 29.1168 50.6597 29.0583 51.0102 29.0307C51.3558 29.0047 51.7178 28.9917 52.0881 28.9917V28.8796C52.0881 28.5334 51.9943 28.2718 51.81 28.1028C51.6257 27.9338 51.3525 27.8477 50.9987 27.8477C50.7535 27.8477 50.5231 27.8916 50.3141 27.9777C50.1051 28.0638 49.9241 28.1808 49.7792 28.3238L49.7644 28.3384L49.4024 27.916L49.4139 27.9046C49.5867 27.734 49.8171 27.591 50.0985 27.4805C50.3799 27.37 50.7041 27.3131 51.0596 27.3131C51.285 27.3131 51.4989 27.344 51.6948 27.4057C51.8906 27.4675 52.0667 27.5617 52.2148 27.6852C52.3645 27.8087 52.4814 27.968 52.5653 28.1565C52.6492 28.3449 52.6904 28.5676 52.6904 28.8211V30.6166C52.6904 30.7742 52.697 30.9384 52.7085 31.1057C52.72 31.2731 52.7381 31.4161 52.7611 31.5331L52.7661 31.5558H52.1868L52.1835 31.5396C52.1654 31.4389 52.1506 31.33 52.1391 31.2146C52.1292 31.1106 52.1226 31.0066 52.121 30.9059C51.935 31.1691 51.7211 31.3625 51.4874 31.4795C51.2488 31.5948 50.9542 31.6566 50.6169 31.6566ZM52.1062 29.0291C51.731 29.0291 51.364 29.0421 51.0118 29.068C50.663 29.094 50.3503 29.1525 50.0804 29.2435C49.8122 29.3329 49.5966 29.4694 49.4369 29.6514C49.279 29.8318 49.1983 30.0804 49.1983 30.3908C49.1983 30.615 49.2444 30.8067 49.3333 30.9611C49.4238 31.1155 49.5373 31.2439 49.6739 31.3414C49.8105 31.4389 49.9636 31.5103 50.1281 31.5542C50.2943 31.5981 50.4589 31.6192 50.6152 31.6192C50.9476 31.6192 51.2356 31.5591 51.471 31.4421C51.7063 31.3251 51.9202 31.1285 52.1062 30.8571L52.1111 30.849H52.1572V30.8685C52.1572 30.979 52.1638 31.0944 52.1753 31.2081C52.1868 31.317 52.2 31.4193 52.2164 31.5152H52.7184C52.697 31.4031 52.6805 31.265 52.669 31.1057C52.6575 30.9384 52.6509 30.7726 52.6509 30.6134V28.8178C52.6509 28.5708 52.6097 28.3531 52.5291 28.1695C52.4485 27.9858 52.3333 27.8331 52.1885 27.7128C52.0436 27.5926 51.8725 27.5 51.68 27.4399C51.4874 27.3797 51.2784 27.3489 51.0563 27.3489C50.7057 27.3489 50.3881 27.4041 50.11 27.5146C49.8401 27.6218 49.618 27.7567 49.4501 27.9192L49.7628 28.2848C49.9092 28.1451 50.0886 28.0297 50.2943 27.9452C50.5083 27.8575 50.7436 27.812 50.9937 27.812C51.3574 27.812 51.6388 27.9013 51.8314 28.0785C52.0239 28.2556 52.121 28.5253 52.121 28.8828V29.0323H52.1062V29.0291ZM50.7765 31.1659C50.658 31.1659 50.5379 31.1529 50.4227 31.1252C50.3058 31.0992 50.1972 31.0537 50.1018 30.992C50.0047 30.9286 49.9273 30.8457 49.8698 30.745C49.8122 30.6442 49.7825 30.5175 49.7825 30.368C49.7825 30.1714 49.85 30.0105 49.9833 29.8903C50.115 29.7717 50.2861 29.6807 50.4918 29.6189C50.6959 29.5572 50.9263 29.5165 51.178 29.4954C51.4298 29.4743 51.6816 29.4645 51.9285 29.4645H52.1243V29.7895C52.1243 29.9715 52.0947 30.147 52.0338 30.3128C51.9745 30.4769 51.8857 30.6248 51.7738 30.7515C51.6602 30.8782 51.517 30.9806 51.3508 31.0537C51.1846 31.1285 50.9904 31.1659 50.7765 31.1659ZM51.9285 29.5019C51.6816 29.5019 51.4315 29.5117 51.1813 29.5328C50.9328 29.5539 50.7041 29.5945 50.5033 29.6547C50.3026 29.7148 50.1363 29.8025 50.0096 29.9179C49.8846 30.03 49.8204 30.1811 49.8204 30.368C49.8204 30.511 49.8484 30.6313 49.9027 30.7271C49.957 30.823 50.031 30.9026 50.1232 30.9611C50.2153 31.0212 50.319 31.0635 50.4326 31.0895C50.5461 31.1155 50.6629 31.1285 50.7781 31.1285C50.9871 31.1285 51.1764 31.0927 51.3377 31.0212C51.5006 30.9497 51.6372 30.8506 51.7474 30.7287C51.8577 30.6053 51.9433 30.4623 52.0009 30.3014C52.0585 30.1405 52.0881 29.9683 52.0881 29.7912V29.5035H51.9285V29.5019Z" fill="#0B0B0C"/>
<path d="M57.0436 31.5326L55.6694 28.1527L54.2328 31.5326H53.6025L55.4209 27.4345H55.9525L57.6541 31.5326H57.0436Z" fill="#0B0B0C"/>
<path d="M57.6846 31.5505H57.0313L57.0264 31.5392L55.6687 28.2015L54.2452 31.5505H53.5738L55.4087 27.4167H55.9666L55.9715 27.428L57.6846 31.5505ZM57.0576 31.5132H57.6287L55.9419 27.454H55.435L53.6347 31.5132H54.2222L55.672 28.1024L55.6901 28.1446L57.0576 31.5132Z" fill="#0B0B0C"/>
<path d="M59.1998 28.8534H60.2283C60.5361 28.8534 60.7977 28.8875 61.0133 28.9542C61.2289 29.0208 61.4033 29.115 61.5366 29.2337C61.6699 29.3539 61.7654 29.4953 61.8246 29.6578C61.8839 29.8219 61.9135 29.9958 61.9135 30.1826C61.9135 30.3695 61.8773 30.545 61.8065 30.7075C61.7358 30.8716 61.6304 31.0146 61.4922 31.1365C61.354 31.2583 61.1812 31.3558 60.9771 31.4257C60.7731 31.4956 60.5344 31.5313 60.2629 31.5313H58.5959V27.4332H59.1998V28.8534ZM60.1214 31.0601C60.2876 31.0601 60.4406 31.0471 60.5822 31.0211C60.7237 30.9951 60.8471 30.948 60.9508 30.8797C61.0545 30.8115 61.1334 30.7221 61.1894 30.6116C61.2453 30.4995 61.2733 30.3597 61.2733 30.1891C61.2733 30.0185 61.2437 29.8788 61.1845 29.7666C61.1252 29.6545 61.0429 29.5668 60.936 29.5034C60.829 29.4384 60.7039 29.3929 60.5591 29.3669C60.4143 29.3409 60.2596 29.3279 60.0934 29.3279H59.1982V31.0601H60.1214Z" fill="#0B0B0C"/>
<path d="M60.2652 31.5507H58.5784V27.4152H59.2185V28.8338H60.2273C60.535 28.8338 60.8 28.8679 61.0172 28.9345C61.2344 29.0028 61.4122 29.0987 61.5471 29.2189C61.6821 29.3391 61.7808 29.4854 61.84 29.6511C61.8993 29.8169 61.9306 29.9956 61.9306 30.1825C61.9306 30.371 61.8944 30.5497 61.8219 30.7155C61.7512 30.8812 61.6426 31.0275 61.5027 31.151C61.3628 31.2745 61.1867 31.3736 60.9827 31.4435C60.7803 31.515 60.5367 31.5507 60.2652 31.5507ZM58.6162 31.5133H60.2635C60.5318 31.5133 60.7704 31.4776 60.9711 31.4093C61.1719 31.3411 61.3431 31.2452 61.4797 31.125C61.6162 31.0047 61.7199 30.8633 61.789 30.7025C61.8581 30.5416 61.8944 30.3677 61.8944 30.1841C61.8944 30.0005 61.8647 29.8266 61.8071 29.6658C61.7495 29.5065 61.6541 29.3651 61.5241 29.2481C61.3941 29.1312 61.2196 29.0385 61.0073 28.9719C60.7934 28.9053 60.5318 28.8728 60.229 28.8728H59.1807V27.4542H58.6162V31.5133ZM60.1236 31.0778H59.1823V29.3066H60.0973C60.2635 29.3066 60.4215 29.3196 60.5663 29.3473C60.7128 29.3733 60.8411 29.4204 60.9498 29.4854C61.0584 29.552 61.1439 29.643 61.2048 29.7568C61.2657 29.8705 61.2953 30.0151 61.2953 30.1874C61.2953 30.3596 61.2657 30.5042 61.2098 30.618C61.1522 30.7317 61.0699 30.8243 60.9646 30.8942C60.8592 30.9625 60.7342 31.0112 60.5894 31.0372C60.4445 31.0648 60.2898 31.0778 60.1236 31.0778ZM60.1236 31.0405C60.2882 31.0405 60.4412 31.0275 60.5811 31.0015C60.7194 30.9755 60.8411 30.93 60.9415 30.8633C61.0419 30.7983 61.1193 30.7106 61.1736 30.6017C61.2279 30.4929 61.2558 30.3547 61.2558 30.1874C61.2558 30.0216 61.2262 29.8819 61.1686 29.773C61.111 29.6658 61.0304 29.578 60.9267 29.5163C60.823 29.4529 60.698 29.409 60.5564 29.383C60.4133 29.357 60.2569 29.344 60.094 29.344H59.2169V31.0405H60.1236Z" fill="#0B0B0C"/>
<path d="M63.7231 31.5333H63.1208V27.4352H63.7231V29.0894H66.0912V27.4352H66.6935V31.5333H66.0912V29.5899H63.7231V31.5333Z" fill="#0B0B0C"/>
<path d="M66.7122 31.5511H66.0721V29.6077H63.7435V31.5511H63.1033V27.4157H63.7435V29.0699H66.0721V27.4157H66.7122V31.5511ZM66.1083 31.5138H66.6727V27.4547H66.1083V29.1089H63.7023V27.4547H63.1379V31.5138H63.7023V29.5703H66.1083V31.5138Z" fill="#0B0B0C"/>
<path d="M68.8184 28.8539H69.6692C69.9769 28.8539 70.2369 28.888 70.4492 28.9546C70.6615 29.0212 70.8326 29.1155 70.9643 29.2341C71.0943 29.3544 71.1881 29.4957 71.2473 29.6582C71.3066 29.8223 71.3362 29.9962 71.3362 30.1831C71.3362 30.3699 71.3016 30.5454 71.2342 30.7079C71.1667 30.8721 71.0647 31.015 70.9281 31.1369C70.7915 31.2588 70.622 31.3563 70.4179 31.4262C70.2139 31.496 69.9753 31.5318 69.7037 31.5318H68.2144V27.4337H68.8184V28.8539ZM68.8184 31.0605H69.5638C69.73 31.0605 69.8831 31.0475 70.0246 31.0215C70.1661 30.9955 70.2863 30.9484 70.3834 30.8802C70.4805 30.8119 70.5578 30.7226 70.6138 30.6121C70.6697 30.4999 70.6977 30.3602 70.6977 30.1896C70.6977 30.019 70.6681 29.8792 70.6088 29.7671C70.5496 29.655 70.4689 29.5672 70.3653 29.5038C70.2616 29.4388 70.1398 29.3933 69.9966 29.3673C69.8551 29.3414 69.7004 29.3284 69.5359 29.3284H68.8184V31.0605ZM72.4799 27.4353V31.5334H71.8776V27.4353H72.4799Z" fill="#0B0B0C"/>
<path d="M72.5003 31.5511H71.8601V27.4157H72.5003V31.5511ZM71.8963 31.5138H72.4608V27.4547H71.8963V31.5138ZM69.706 31.5511H68.1969V27.4157H68.8371V28.8342H69.6698C69.9775 28.8342 70.2425 28.8684 70.4564 28.935C70.6703 29.0032 70.8464 29.0991 70.9781 29.2193C71.1097 29.3412 71.2068 29.4858 71.266 29.6516C71.3253 29.8173 71.3566 29.9961 71.3566 30.1829C71.3566 30.3714 71.322 30.5502 71.2529 30.7159C71.1838 30.8817 71.0801 31.0279 70.9419 31.1514C70.8036 31.2749 70.6308 31.374 70.4251 31.4439C70.2211 31.5154 69.9792 31.5511 69.706 31.5511ZM68.2348 31.5138H69.706C69.9742 31.5138 70.2128 31.478 70.4136 31.4098C70.6144 31.3415 70.7839 31.2457 70.9172 31.1254C71.0505 31.0052 71.1525 30.8638 71.2183 30.7029C71.2858 30.5421 71.3187 30.3682 71.3187 30.1846C71.3187 30.0009 71.2891 29.8271 71.2315 29.6662C71.1739 29.507 71.0801 29.3656 70.9534 29.2486C70.8267 29.1316 70.6555 29.039 70.4465 28.9724C70.2359 28.9057 69.9759 28.8732 69.6714 28.8732H68.8009V27.4547H68.2364V31.5138H68.2348ZM69.5645 31.0783H68.8009V29.3071H69.5381C69.7043 29.3071 69.8607 29.3201 70.0022 29.3477C70.1454 29.3737 70.2721 29.4208 70.3774 29.4875C70.4827 29.5541 70.5683 29.6451 70.6275 29.7588C70.6884 29.8726 70.7181 30.0172 70.7181 30.1894C70.7181 30.3617 70.6884 30.5063 70.6325 30.6201C70.5749 30.7338 70.4959 30.8264 70.3955 30.8963C70.2968 30.9645 70.1733 31.0133 70.0285 31.0409C69.887 31.0653 69.7307 31.0783 69.5645 31.0783ZM69.5645 31.0409C69.729 31.0409 69.8821 31.0279 70.0219 31.0019C70.1602 30.9759 70.2787 30.9304 70.3741 30.8638C70.4679 30.7988 70.5436 30.7111 70.5979 30.6022C70.6522 30.4933 70.6802 30.3552 70.6802 30.1878C70.6802 30.0221 70.6506 29.8823 70.593 29.7735C70.5354 29.6662 70.4564 29.5785 70.356 29.5167C70.2556 29.4533 70.1339 29.4095 69.994 29.3835C69.8541 29.3575 69.6994 29.3445 69.5365 29.3445H68.8371V31.0409H69.5645Z" fill="#0B0B0C"/>
<path d="M77.1745 28.197L74.6303 31.533H74.0099V27.4349H74.6303V30.6474L77.1745 27.4349H77.7949V31.533H77.1745V28.197ZM74.5842 25.5694C74.6319 25.7043 74.6928 25.8359 74.7652 25.9627C74.8393 26.091 74.9314 26.2031 75.0401 26.299C75.1487 26.3949 75.2787 26.4729 75.4251 26.5314C75.5732 26.5899 75.7444 26.6191 75.9402 26.6191C76.141 26.6191 76.3187 26.585 76.4718 26.5184C76.6248 26.4518 76.7565 26.3673 76.8667 26.2649C76.9753 26.1625 77.0642 26.0504 77.1333 25.9285C77.2008 25.8067 77.2551 25.6864 77.2979 25.5694L76.8634 25.376C76.7811 25.5987 76.6709 25.7823 76.5359 25.9269C76.3994 26.0731 76.2019 26.1463 75.9419 26.1463C75.6934 26.1463 75.4992 26.078 75.356 25.9399C75.2145 25.8034 75.1026 25.6149 75.0187 25.3744L74.5842 25.5694Z" fill="#0B0B0C"/>
<path d="M77.812 31.5509H77.1537V28.2523L74.6376 31.5509H73.9892V27.4154H74.6474V30.5922L77.1636 27.4154H77.812V31.5509ZM77.1916 31.5135H77.7742V27.4544H77.1817L74.6079 30.7027V27.4544H74.0254V31.5135H74.6178L77.1916 28.1401V31.5135ZM75.9409 26.6387C75.7434 26.6387 75.569 26.6094 75.4192 26.5493C75.2711 26.4908 75.1395 26.4112 75.0276 26.3137C74.9173 26.2162 74.8235 26.1008 74.7495 25.9725C74.6754 25.8441 74.6145 25.7108 74.5668 25.576L74.5619 25.5597L75.0309 25.3517L75.0374 25.3712C75.1181 25.6068 75.23 25.7937 75.3699 25.9286C75.5065 26.0618 75.699 26.1284 75.9426 26.1284C76.196 26.1284 76.3918 26.057 76.5218 25.9156C76.6551 25.7726 76.7637 25.589 76.846 25.3696L76.8526 25.3501L77.3216 25.5581L77.3167 25.5743C77.2755 25.6913 77.2196 25.8132 77.1521 25.9367C77.083 26.0602 76.9925 26.1756 76.8822 26.2779C76.772 26.3819 76.637 26.4681 76.4823 26.5347C76.3243 26.6046 76.1433 26.6387 75.9409 26.6387ZM74.6079 25.5808C74.654 25.7076 74.7116 25.8343 74.7824 25.9562C74.8548 26.0813 74.9453 26.1934 75.0539 26.2893C75.1609 26.3836 75.2892 26.4616 75.434 26.5184C75.5789 26.5753 75.75 26.6046 75.9409 26.6046C76.1384 26.6046 76.3145 26.5704 76.4659 26.5054C76.6173 26.4404 76.7473 26.3559 76.8542 26.2552C76.9612 26.1544 77.0501 26.0423 77.1159 25.9221C77.1801 25.8067 77.2327 25.6913 77.2722 25.5825L76.8723 25.4053C76.7901 25.6198 76.6798 25.8018 76.5481 25.9448C76.4083 26.0943 76.2042 26.1691 75.9409 26.1691C75.6891 26.1691 75.4867 26.0976 75.3419 25.9578C75.202 25.823 75.0901 25.6377 75.0078 25.4053L74.6079 25.5808Z" fill="#0B0B0C"/>
<path d="M81.5332 31.5333V27.4352H82.1355V30.9987H84.3604V27.4352H84.9627V30.9987H85.6539V32.7504H85.0516V31.5333H81.5332Z" fill="#0B0B0C"/>
<path d="M85.6759 32.7682H85.0358V31.5511H81.5157V27.4157H82.1559V30.9792H84.3429V27.4157H84.9831V30.9792H85.6743V32.7682H85.6759ZM85.0736 32.7309H85.6381V31.0182H84.9469V27.4547H84.3824V31.0182H82.1197V27.4547H81.5552V31.5138H85.0753V32.7309H85.0736Z" fill="#0B0B0C"/>
<path d="M90.4088 29.3607C90.4088 29.4013 90.4088 29.4452 90.4088 29.4923C90.4088 29.5394 90.4055 29.5881 90.4006 29.6418H86.9595C86.9661 29.8465 87.0073 30.0383 87.083 30.2203C87.1603 30.4006 87.2656 30.5582 87.4022 30.6931C87.5388 30.828 87.6984 30.9336 87.8811 31.0132C88.0638 31.0929 88.2629 31.1318 88.4752 31.1318C88.7878 31.1318 89.0594 31.0604 89.2865 30.9174C89.5136 30.7744 89.6864 30.6102 89.8049 30.4234L90.2574 30.7727C90.0089 31.0815 89.7357 31.3041 89.4379 31.4373C89.14 31.5722 88.8191 31.6388 88.4752 31.6388C88.1674 31.6388 87.8827 31.5852 87.6194 31.4763C87.3561 31.3691 87.1307 31.218 86.9414 31.0262C86.7522 30.8329 86.6024 30.6054 86.4938 30.3438C86.3836 30.0805 86.3293 29.7945 86.3293 29.4858C86.3293 29.177 86.3819 28.891 86.4889 28.6278C86.5958 28.3646 86.7423 28.1371 86.9316 27.9453C87.1208 27.752 87.343 27.6025 87.5964 27.4952C87.8498 27.388 88.1247 27.3327 88.4209 27.3327C88.7451 27.3327 89.033 27.3863 89.2815 27.4952C89.53 27.6041 89.7374 27.7487 89.9019 27.9323C90.0665 28.1159 90.1932 28.3304 90.2788 28.5758C90.366 28.8179 90.4088 29.0812 90.4088 29.3607ZM89.7966 29.1689C89.7785 28.7838 89.6535 28.4637 89.4198 28.2102C89.1861 27.9567 88.8537 27.83 88.4225 27.83C88.2217 27.83 88.0358 27.8657 87.8646 27.9388C87.6935 28.012 87.5421 28.1111 87.4121 28.2362C87.2821 28.3613 87.1784 28.5043 87.1011 28.6652C87.0237 28.826 86.9793 28.9934 86.9678 29.1689H89.7966Z" fill="#0B0B0C"/>
<path d="M88.4758 31.6567C88.1681 31.6567 87.8768 31.6014 87.6135 31.4926C87.3502 31.3837 87.1181 31.231 86.9289 31.0376C86.7396 30.8442 86.5866 30.6119 86.478 30.3486C86.3677 30.0854 86.3118 29.7945 86.3118 29.4841C86.3118 29.1738 86.3661 28.8829 86.4731 28.6197C86.58 28.3564 86.7298 28.1241 86.9207 27.9307C87.1099 27.7373 87.337 27.5846 87.5921 27.4757C87.8472 27.3668 88.1269 27.3116 88.4248 27.3116C88.7506 27.3116 89.0435 27.3668 89.292 27.4757C89.5422 27.5846 89.7528 27.7324 89.919 27.9177C90.0852 28.1029 90.2136 28.3207 90.2992 28.5677C90.3847 28.8147 90.4292 29.0812 90.4292 29.3623V29.4939C90.4292 29.5394 90.4259 29.5914 90.4209 29.645L90.4176 29.6596H86.9799C86.9881 29.853 87.0293 30.0399 87.1017 30.2121C87.1774 30.3892 87.2827 30.5469 87.416 30.6785C87.5493 30.8101 87.7089 30.9157 87.8883 30.9937C88.0677 31.0717 88.2652 31.1107 88.4741 31.1107C88.7819 31.1107 89.0518 31.0392 89.2756 30.8995C89.4994 30.7581 89.6722 30.594 89.789 30.4104L89.8005 30.3925L90.2844 30.7678L90.2728 30.7825C90.0243 31.0928 89.7462 31.3187 89.4451 31.4536C89.1456 31.5884 88.8197 31.6567 88.4758 31.6567ZM88.4231 27.349C88.1319 27.349 87.857 27.4026 87.6052 27.5098C87.3551 27.6171 87.1329 27.7666 86.947 27.9567C86.761 28.1468 86.6129 28.3743 86.5076 28.6343C86.4023 28.8927 86.3496 29.1803 86.3496 29.4858C86.3496 29.7913 86.4039 30.0772 86.5125 30.3372C86.6212 30.5972 86.7693 30.8247 86.9569 31.0148C87.1428 31.205 87.3699 31.3545 87.6283 31.4617C87.8883 31.5689 88.173 31.6226 88.4774 31.6226C88.8164 31.6226 89.1373 31.5559 89.4319 31.4227C89.7215 31.2927 89.9914 31.075 90.2333 30.7776L89.8121 30.4526C89.6936 30.633 89.5208 30.7955 89.2986 30.9352C89.0699 31.0798 88.7934 31.153 88.4774 31.153C88.2635 31.153 88.0611 31.1123 87.8751 31.0327C87.6908 30.9531 87.5279 30.8442 87.3897 30.7094C87.2531 30.5745 87.1445 30.4136 87.0671 30.23C86.9898 30.048 86.947 29.8514 86.9421 29.645V29.6255H90.3847C90.3897 29.58 90.3913 29.5361 90.3913 29.4955V29.3639C90.3913 29.0876 90.3485 28.8244 90.2646 28.5823C90.1807 28.3402 90.054 28.1257 89.891 27.9453C89.7281 27.7649 89.5208 27.6187 89.2772 27.5131C89.0304 27.4026 88.744 27.349 88.4231 27.349ZM89.817 29.1868H86.9486L86.9503 29.1673C86.9618 28.9902 87.0079 28.8195 87.0852 28.657C87.1626 28.4962 87.2679 28.3499 87.3995 28.2232C87.5312 28.0964 87.6842 27.9957 87.857 27.9209C88.0298 27.8478 88.2207 27.8104 88.4231 27.8104C88.8576 27.8104 89.1982 27.9404 89.4352 28.1972C89.6705 28.4539 89.7989 28.7789 89.817 29.1673V29.1868ZM86.9898 29.1494H89.7775C89.7561 28.7789 89.6327 28.4669 89.4072 28.2216C89.1785 27.9729 88.8477 27.8462 88.4231 27.8462C88.2257 27.8462 88.0397 27.8819 87.8718 27.9534C87.704 28.0249 87.5526 28.1241 87.4259 28.2476C87.2975 28.371 87.1955 28.514 87.1198 28.6717C87.0457 28.8244 87.0029 28.9853 86.9898 29.1494Z" fill="#0B0B0C"/>
<path d="M92.2725 31.5333H91.6702V27.4352H92.2725V29.0894H94.6406V27.4352H95.2429V31.5333H94.6406V29.5899H92.2725V31.5333Z" fill="#0B0B0C"/>
<path d="M95.2615 31.5512H94.6214V29.6077H92.2928V31.5512H91.6526V27.4157H92.2928V29.0699H94.6214V27.4157H95.2615V31.5512ZM94.6576 31.5138H95.222V27.4547H94.6576V29.1089H92.2516V27.4547H91.6872V31.5138H92.2516V29.5703H94.6576V31.5138Z" fill="#0B0B0C"/>
<path d="M96.0932 27.4345H99.7367V27.9334H98.1667V31.531H97.5644V27.9334H96.0932V27.4345Z" fill="#0B0B0C"/>
<path d="M97.5472 31.5507V27.9531H96.076V27.4168H99.759V27.9531H98.189V31.5507H97.5472ZM97.5834 31.5133H98.1479V27.9157H99.7178V27.4542H96.1122V27.9157H97.5834V31.5133Z" fill="#0B0B0C"/>
<path d="M101.229 33.6345H100.627V27.4353H101.229V28.1438H101.256C101.427 27.8757 101.655 27.6726 101.943 27.5361C102.23 27.3996 102.521 27.3297 102.817 27.3297C103.143 27.3297 103.436 27.3849 103.699 27.4954C103.963 27.6059 104.187 27.7587 104.372 27.9504C104.558 28.1422 104.703 28.3713 104.807 28.6329C104.911 28.8961 104.962 29.1789 104.962 29.4827C104.962 29.7866 104.911 30.0694 104.807 30.3326C104.703 30.5958 104.558 30.8233 104.372 31.0151C104.187 31.2068 103.961 31.3596 103.699 31.4701C103.436 31.5806 103.142 31.6358 102.817 31.6358C102.521 31.6358 102.23 31.5676 101.943 31.4294C101.657 31.2929 101.428 31.0947 101.256 30.838H101.229V33.6345ZM104.323 29.4844C104.323 29.2569 104.287 29.0424 104.216 28.8409C104.145 28.6394 104.043 28.4639 103.91 28.316C103.777 28.1665 103.612 28.0495 103.418 27.9618C103.222 27.874 103.002 27.8302 102.753 27.8302C102.523 27.8302 102.31 27.8724 102.115 27.9569C101.919 28.0414 101.751 28.1584 101.609 28.3063C101.468 28.4558 101.356 28.6296 101.277 28.8311C101.196 29.0326 101.157 29.2504 101.157 29.4827C101.157 29.7167 101.196 29.9329 101.277 30.1344C101.356 30.3358 101.468 30.5097 101.609 30.656C101.751 30.8022 101.92 30.9176 102.115 31.0021C102.31 31.0866 102.523 31.1288 102.753 31.1288C103.002 31.1288 103.224 31.0866 103.418 31.0021C103.614 30.9176 103.777 30.8006 103.91 30.6511C104.043 30.5016 104.145 30.3277 104.216 30.1262C104.289 29.9264 104.323 29.7119 104.323 29.4844Z" fill="#0B0B0C"/>
<path d="M101.246 33.6523H100.606V27.4157H101.246V28.121C101.418 27.8577 101.65 27.6546 101.933 27.5181C102.221 27.38 102.517 27.3101 102.815 27.3101C103.141 27.3101 103.44 27.367 103.705 27.4775C103.97 27.5896 104.199 27.744 104.385 27.9374C104.572 28.1307 104.719 28.3631 104.822 28.6263C104.926 28.8896 104.979 29.1788 104.979 29.4827C104.979 29.7865 104.926 30.0742 104.822 30.339C104.719 30.6023 104.571 30.8346 104.385 31.028C104.197 31.2214 103.968 31.3757 103.705 31.4879C103.44 31.6 103.141 31.6552 102.815 31.6552C102.519 31.6552 102.221 31.5854 101.933 31.4472C101.648 31.3107 101.418 31.1141 101.246 30.8623V33.6523ZM100.644 33.6149H101.209V30.8216H101.265L101.27 30.8298C101.437 31.0833 101.666 31.2799 101.949 31.4147C102.232 31.5496 102.523 31.6179 102.815 31.6179C103.136 31.6179 103.43 31.5626 103.69 31.4537C103.95 31.3449 104.174 31.1921 104.358 31.002C104.541 30.8119 104.686 30.5844 104.79 30.326C104.892 30.066 104.944 29.7833 104.944 29.4843C104.944 29.1853 104.893 28.9009 104.79 28.6426C104.688 28.3826 104.543 28.1551 104.358 27.9666C104.176 27.7765 103.95 27.6254 103.69 27.5149C103.43 27.406 103.136 27.3507 102.815 27.3507C102.523 27.3507 102.232 27.419 101.949 27.5539C101.668 27.6887 101.439 27.8919 101.27 28.1551L101.265 28.1632H101.209V27.4547H100.644V33.6149ZM102.754 31.1483C102.522 31.1483 102.305 31.1044 102.107 31.0199C101.911 30.9354 101.739 30.8168 101.595 30.6705C101.452 30.5243 101.339 30.3455 101.26 30.144C101.179 29.9409 101.138 29.7199 101.138 29.4843C101.138 29.2487 101.179 29.0277 101.26 28.8246C101.34 28.6215 101.452 28.4427 101.595 28.2932C101.739 28.1437 101.91 28.0235 102.107 27.939C102.305 27.8529 102.522 27.8106 102.754 27.8106C103.004 27.8106 103.229 27.8561 103.427 27.9439C103.624 28.0316 103.791 28.1535 103.926 28.303C104.059 28.4525 104.164 28.6312 104.235 28.8343C104.306 29.0358 104.342 29.2552 104.342 29.4843C104.342 29.7134 104.306 29.9312 104.235 30.1343C104.164 30.3374 104.059 30.5161 103.926 30.6656C103.791 30.8168 103.623 30.9354 103.427 31.0199C103.229 31.106 103.004 31.1483 102.754 31.1483ZM102.754 27.848C102.527 27.848 102.314 27.8902 102.124 27.9731C101.931 28.056 101.763 28.173 101.625 28.3192C101.485 28.4655 101.375 28.641 101.296 28.8392C101.217 29.0374 101.177 29.2552 101.177 29.4843C101.177 29.7134 101.217 29.9312 101.296 30.1294C101.375 30.3277 101.485 30.5015 101.625 30.6445C101.765 30.7875 101.933 30.9029 102.124 30.9858C102.314 31.0686 102.527 31.1109 102.754 31.1109C102.999 31.1109 103.22 31.0686 103.41 30.9858C103.601 30.9029 103.766 30.7859 103.896 30.6396C104.026 30.4934 104.128 30.3195 104.199 30.1213C104.27 29.923 104.304 29.7085 104.304 29.4843C104.304 29.2601 104.268 29.0456 104.199 28.8473C104.13 28.6491 104.028 28.4752 103.896 28.329C103.766 28.1827 103.601 28.0657 103.41 27.9796C103.22 27.8919 102.997 27.848 102.754 27.848Z" fill="#0B0B0C"/>
<path d="M87.3159 4.70215C91.2901 4.70215 94.4909 7.86267 94.4909 11.7869C94.4909 15.7112 91.2901 18.8717 87.3159 18.8717C83.3417 18.8717 80.1409 15.7112 80.1409 11.7869C80.1409 7.8643 83.3417 4.70215 87.3159 4.70215Z" fill="#1E3A8F"/>
<path d="M21.9433 4.65263C25.9175 4.65263 29.1183 7.81315 29.1183 11.7374C29.1183 15.6617 25.9175 18.8222 21.9433 18.8222C17.9691 18.8222 14.7683 15.6617 14.7683 11.7374C14.7683 7.81315 17.9691 4.65263 21.9433 4.65263ZM21.9433 17.7318C25.3103 17.7318 28.0141 15.062 28.0141 11.7374C28.0141 8.41276 25.3086 5.74297 21.9433 5.74297C18.5763 5.74297 15.8709 8.41276 15.8709 11.7374C15.8709 15.062 18.5763 17.7318 21.9433 17.7318Z" fill="#0B0B0C"/>
<path d="M21.9424 18.8416C20.0153 18.8416 18.2068 18.1039 16.8508 16.7649C15.4948 15.426 14.7476 13.6401 14.7476 11.7373C14.7476 9.83452 15.4948 8.0487 16.8508 6.70974C18.2068 5.37078 20.0137 4.63306 21.9424 4.63306C23.8694 4.63306 25.678 5.37078 27.034 6.70974C28.39 8.0487 29.1371 9.83452 29.1371 11.7373C29.1371 13.6401 28.39 15.426 27.034 16.7649C25.6763 18.1039 23.8694 18.8416 21.9424 18.8416ZM21.9424 4.67206C20.0252 4.67206 18.2265 5.40491 16.8787 6.73737C15.531 8.06982 14.7855 9.84427 14.7855 11.7373C14.7855 13.6304 15.5277 15.4065 16.8771 16.7373C18.2265 18.0698 20.0236 18.8026 21.9407 18.8026C23.8579 18.8026 25.655 18.0698 27.0044 16.7373C28.3538 15.4048 29.096 13.6304 29.096 11.7373C29.096 9.84427 28.3538 8.0682 27.0044 6.73737C25.6566 5.40491 23.8579 4.67206 21.9424 4.67206ZM21.9424 17.7513C20.3083 17.7513 18.7778 17.1273 17.6308 15.9947C16.4838 14.8621 15.8519 13.3493 15.8519 11.7373C15.8519 10.1254 16.4838 8.61256 17.6308 7.47997C18.7778 6.34738 20.3099 5.7234 21.9424 5.7234C23.5765 5.7234 25.107 6.34738 26.254 7.47997C27.401 8.61256 28.0329 10.1254 28.0329 11.7373C28.0329 13.3509 27.401 14.8621 26.254 15.9947C25.107 17.1273 23.5749 17.7513 21.9424 17.7513ZM21.9424 5.7624C20.3198 5.7624 18.7976 6.3815 17.6571 7.50759C16.5167 8.63368 15.8897 10.1351 15.8897 11.7373C15.8897 13.3395 16.5167 14.8426 17.6571 15.9671C18.7976 17.0932 20.3181 17.7123 21.9424 17.7123C23.565 17.7123 25.0872 17.0932 26.226 15.9671C27.3664 14.841 27.9934 13.3395 27.9934 11.7373C27.9934 10.1351 27.3648 8.63206 26.226 7.50759C25.0856 6.3815 23.565 5.7624 21.9424 5.7624Z" fill="#0B0B0C"/>
<path d="M45.4072 4.6016V18.867H44.252V5.68544H33.8499V18.867H32.6946V4.6016H45.4072Z" fill="#0B0B0C"/>
<path d="M45.4277 18.8865H44.233V5.70487H33.8687V18.8865H32.674V4.58203H45.4261V18.8865H45.4277ZM44.2708 18.8475H45.3882V4.62103H32.7135V18.8491H33.8309V5.66587H44.2725V18.8475H44.2708Z" fill="#0B0B0C"/>
<path d="M50.9589 18.867H49.8037V4.6016H50.9589V16.0136L61.361 6.02831V4.6016H62.5163V18.867H61.361V7.45501L50.9589 17.4419V18.867Z" fill="#0B0B0C"/>
<path d="M62.5367 18.8865H61.342V7.50044L50.9777 17.45V18.8881H49.783V4.58203H50.9777V15.968L61.342 6.01849V4.58203H62.5367V18.8865ZM61.3815 18.8475H62.4989V4.62103H61.3815V6.03636L61.3749 6.04123L50.9399 16.059V4.62103H49.8225V18.8491H50.9399V17.4337L50.9465 17.4289L61.3815 7.41107V18.8475Z" fill="#0B0B0C"/>
<path d="M98.9229 6.31267V18.867H97.7676V4.6016H98.9229L107.014 14.3594L115.106 4.6016H116.261V18.867H115.106V6.31267L107.014 16.0705L98.9229 6.31267Z" fill="#0B0B0C"/>
<path d="M116.28 18.8865H115.085V6.36622L107.014 16.1013L98.9417 6.36785V18.8881H97.747V4.58203H98.9318L98.9384 4.58853L107.014 14.3285L115.095 4.58203H116.28V18.8865ZM116.242 18.8475V4.62103H115.115L107.015 14.3902L98.9137 4.62103H97.7865V18.8491H98.9038V6.25898L107.014 16.0395L115.123 6.25898V18.8475H116.242Z" fill="#0B0B0C"/>
<path d="M1.73746 4.6081H3.22018V18.867H1.73746V4.6081ZM4.00516 11.5548L10.6338 4.6081L11.7726 4.6016L5.60801 11.1388L13.1171 18.8687H11.1571L4.00516 11.5548Z" fill="#0B0B0C"/>
<path d="M13.1622 18.8865H11.148L3.97627 11.5547L3.98943 11.5417L10.623 4.58853L11.8161 4.58203L5.63507 11.1371L13.1622 18.8865ZM11.1644 18.8475H13.0717L5.58077 11.1387L5.59393 11.1257L11.7256 4.62103L10.6395 4.62753L4.03057 11.5547L11.1644 18.8475ZM3.23737 18.8865H1.7168V4.58853H3.23737V18.8865ZM1.75629 18.8475H3.19952V4.62753H1.75629V18.8475Z" fill="#0B0B0C"/>
<path d="M67.0099 4.6081H68.4926V18.867H67.0099V4.6081ZM69.2776 11.5548L75.9062 4.6081L77.045 4.6016L70.8821 11.1388L78.3911 18.8687H76.4295L69.2776 11.5548Z" fill="#0B0B0C"/>
<path d="M78.4348 18.8866H76.4189L69.2488 11.5548L69.262 11.5418L75.8956 4.5903L77.0887 4.58217L70.9076 11.1372L78.4348 18.8866ZM76.4353 18.8476H78.3443L70.8533 11.1372L70.8665 11.1242L76.9998 4.61955L75.9137 4.62605L69.3031 11.5548L76.4353 18.8476ZM68.5099 18.8866H66.9893V4.58867H68.5099V18.8866ZM67.0272 18.8476H68.4704V4.62767H67.0272V18.8476Z" fill="#0B0B0C"/>
</svg>
