<svg width="59" height="58" viewBox="0 0 59 58" fill="none" xmlns="http://www.w3.org/2000/svg">
<path d="M41.5505 0.613342H14.1746C14.5873 9.31664 8.60179 14.7562 0.946289 16.035C2.78511 35.6174 12.7485 50.1229 30.0109 57.3947C43.6895 51.5734 54.7975 40.4271 58.1749 24.7764C61.2522 10.4427 54.4785 0.613342 41.5505 0.613342ZM56.1297 24.3184C53.2214 38.1559 43.3893 49.2449 30.0109 55.1044C14.3059 48.2524 5.22437 34.6631 3.2542 17.6955C10.2905 15.8441 15.7694 10.4809 16.2573 2.69374H41.6631C54.0845 2.61739 58.7191 12.5804 56.1297 24.3184Z" fill="#141D38"/>
<path d="M28.4912 34.4328H31.5121L30.1049 27.5045L28.4912 34.4328Z" fill="#141D38"/>
<path d="M41.6386 4.6015H17.884C16.777 11.6634 11.8234 16.7594 5.3125 19.0307C7.54536 34.6622 16.1953 46.8011 30.0428 53.0422C42.2203 47.4118 51.4707 37.3916 54.3415 23.8976C56.5744 13.4384 52.878 4.54424 41.6386 4.6015ZM9.32789 20.5957H23.9822L30.9247 12.7131L27.96 11.6252C27.6411 11.4916 27.6598 11.1671 27.96 11.1671H31.2061L32.2194 7.73164C32.2756 7.5026 32.5759 7.55986 32.5759 7.73164L32.8948 11.1671H36.0096C36.2347 11.1671 36.3286 11.4534 35.9158 11.6252L32.6134 12.7704L27.4347 20.5957H29.1421C28.9733 21.2256 28.7856 21.989 28.5605 22.867L25.8398 23.0578L25.5395 23.5159C24.7702 24.4702 22.8751 26.8751 21.7493 27.1423C21.0363 27.3141 20.3233 26.5888 20.6235 25.6536C20.8862 24.7565 21.5992 24.0122 22.012 23.2105L9.2716 21.5691C8.68993 21.5691 8.74622 20.5957 9.32789 20.5957ZM45.9918 31.6275C45.0161 31.6275 44.9785 32.0284 44.9785 33.0208V37.6397C44.9785 38.6703 45.0536 39.0139 45.9918 39.0139V39.93H42.0327V39.0139C42.9333 39.0139 43.0647 38.6894 43.0647 37.6397V34.0515L39.8561 38.0214V38.1932C39.8561 38.7467 40.1563 38.9757 40.8881 38.9757V39.8919H31.0372V38.9757C31.7503 38.9757 32.2006 38.8994 32.2006 38.2123C32.2006 37.7924 32.013 36.6663 31.7127 35.4448H28.1477L27.6973 37.2961C27.3784 38.5177 27.4722 38.9757 28.7669 38.9757V39.8919H20.5672V38.9757C21.5429 38.9757 21.6367 38.6513 21.6367 37.5824V33.3071L19.1412 39.6056L16.6081 33.1163V37.6969C16.6081 38.594 16.7019 38.9757 17.6776 38.9757V39.8919H14.6567V38.9757C15.6887 38.9757 15.7262 38.3459 15.7262 37.4679V33.0017C15.7262 32.2192 15.7262 31.6085 14.7318 31.6085V30.6923H17.9779L19.7229 35.4448L21.4679 30.6923H24.5826V31.6085C23.6069 31.6085 23.5881 32.0093 23.5881 33.0017V37.6206C23.5881 38.5177 23.682 38.7658 23.9447 38.8803C24.5263 39.1093 25.6709 39.0521 25.9899 38.3841C26.2901 37.7351 26.534 37.048 26.7029 36.3418L30.9059 19.546L34.6961 36.0365C35.1089 37.8115 35.3529 38.2695 35.7281 38.6322C36.1222 38.9566 37.3418 39.2238 37.8109 38.7276C37.9047 38.6322 37.9797 38.4222 37.9797 37.6397V33.0208C37.9797 31.9711 37.9047 31.6275 36.9478 31.6275V30.7114H40.9256V31.6275C39.9499 31.6275 39.8936 32.0474 39.8936 33.0208V36.6472L43.1022 32.6582V32.4864C43.1022 32.0665 42.8395 31.6275 42.0702 31.6275V30.7114H46.0293V31.6275H45.9918ZM45.5977 21.5691L33.0262 22.5234L32.5759 20.5766H45.5977C46.2732 20.5957 46.3107 21.55 45.5977 21.5691Z" fill="#141D38"/>
</svg>
