<svg width="35" height="35" viewBox="0 0 35 35" fill="none" xmlns="http://www.w3.org/2000/svg">
<g clip-path="url(#clip0_956_50)">
<path d="M17.5 3.16265C22.1385 3.16265 22.7712 3.16265 24.6687 3.16265C26.3554 3.16265 27.1988 3.58433 27.8313 3.79519C28.6746 4.21687 29.3073 4.42771 29.9397 5.06025C30.5723 5.69277 30.9939 6.3253 31.2048 7.16868C31.4157 7.8012 31.6265 8.64458 31.8374 10.3313C31.8374 12.2289 31.8374 12.6506 31.8374 17.5C31.8374 22.3494 31.8374 22.7712 31.8374 24.6687C31.8374 26.3554 31.4157 27.1988 31.2048 27.8313C30.7832 28.6746 30.5723 29.3073 29.9397 29.9397C29.3073 30.5723 28.6746 30.9939 27.8313 31.2048C27.1988 31.4157 26.3554 31.6265 24.6687 31.8374C22.7712 31.8374 22.3494 31.8374 17.5 31.8374C12.6506 31.8374 12.2289 31.8374 10.3313 31.8374C8.64458 31.8374 7.8012 31.4157 7.16868 31.2048C6.3253 30.7832 5.69277 30.5723 5.06025 29.9397C4.42771 29.3073 4.00603 28.6746 3.79519 27.8313C3.58433 27.1988 3.37349 26.3554 3.16265 24.6687C3.16265 22.7712 3.16265 22.3494 3.16265 17.5C3.16265 12.6506 3.16265 12.2289 3.16265 10.3313C3.16265 8.64458 3.58433 7.8012 3.79519 7.16868C4.21687 6.3253 4.42771 5.69277 5.06025 5.06025C5.69277 4.42771 6.3253 4.00603 7.16868 3.79519C7.8012 3.58433 8.64458 3.37349 10.3313 3.16265C12.2289 3.16265 12.8615 3.16265 17.5 3.16265ZM17.5 0C12.6506 0 12.2289 0 10.3313 0C8.43374 0 7.16868 0.421689 6.11446 0.843374C5.06025 1.26506 4.00603 1.8976 2.95181 2.95181C1.8976 4.00603 1.4759 4.84941 0.843374 6.11446C0.421689 7.16868 0.210843 8.43374 0 10.3313C0 12.2289 0 12.8615 0 17.5C0 22.3494 0 22.7712 0 24.6687C0 26.5662 0.421689 27.8313 0.843374 28.8855C1.26506 29.9397 1.8976 30.9939 2.95181 32.0483C4.00603 33.1025 4.84941 33.5241 6.11446 34.1567C7.16868 34.5783 8.43374 34.7891 10.3313 35C12.2289 35 12.8615 35 17.5 35C22.1385 35 22.7712 35 24.6687 35C26.5662 35 27.8313 34.5783 28.8855 34.1567C29.9397 33.7349 30.9939 33.1025 32.0483 32.0483C33.1025 30.9939 33.5241 30.1506 34.1567 28.8855C34.5783 27.8313 34.7891 26.5662 35 24.6687C35 22.7712 35 22.1385 35 17.5C35 12.8615 35 12.2289 35 10.3313C35 8.43374 34.5783 7.16868 34.1567 6.11446C33.7349 5.06025 33.1025 4.00603 32.0483 2.95181C30.9939 1.8976 30.1506 1.4759 28.8855 0.843374C27.8313 0.421689 26.5662 0.210843 24.6687 0C22.7712 0 22.3494 0 17.5 0Z" fill="black"/>
<path d="M17.5001 8.43372C12.4398 8.43372 8.43384 12.4397 8.43384 17.5C8.43384 22.5603 12.4398 26.5662 17.5001 26.5662C22.5604 26.5662 26.5663 22.5603 26.5663 17.5C26.5663 12.4397 22.5604 8.43372 17.5001 8.43372ZM17.5001 23.4036C14.3374 23.4036 11.5965 20.8735 11.5965 17.5C11.5965 14.3373 14.1266 11.5964 17.5001 11.5964C20.6627 11.5964 23.4037 14.1265 23.4037 17.5C23.4037 20.6626 20.6627 23.4036 17.5001 23.4036Z" fill="black"/>
<path d="M26.7771 10.3314C27.9416 10.3314 28.8855 9.38739 28.8855 8.22294C28.8855 7.05847 27.9416 6.1145 26.7771 6.1145C25.6127 6.1145 24.6687 7.05847 24.6687 8.22294C24.6687 9.38739 25.6127 10.3314 26.7771 10.3314Z" fill="black"/>
</g>
<defs>
<clipPath id="clip0_956_50">
<rect width="35" height="35" fill="white"/>
</clipPath>
</defs>
</svg>
