<svg width="35" height="35" viewBox="0 0 35 35" fill="none" xmlns="http://www.w3.org/2000/svg">
<path fill-rule="evenodd" clip-rule="evenodd" d="M17.3182 35C17.3182 35 31.6364 25.4545 31.6364 14.3182C31.6364 10.5208 30.1279 6.87889 27.4427 4.19371C24.7576 1.50851 21.1156 0 17.3182 0C13.5208 0 9.87889 1.50851 7.19371 4.19371C4.50853 6.87889 3 10.5208 3 14.3182C3 25.4545 17.3182 35 17.3182 35ZM22.091 14.3182C22.091 16.9541 19.9541 19.0909 17.3182 19.0909C14.6823 19.0909 12.5455 16.9541 12.5455 14.3182C12.5455 11.6823 14.6823 9.54548 17.3182 9.54548C19.9541 9.54548 22.091 11.6823 22.091 14.3182Z" fill="black"/>
</svg>
