<svg width="57" height="52" viewBox="0 0 57 52" fill="none" xmlns="http://www.w3.org/2000/svg">
<path d="M23.6027 10.1484L21.6687 5.83792L19.7948 10.1749L8.33738 36.6927L4.99767 36.6965L2.91729 36.6988L2.9196 38.7792L2.92653 45.0023L2.92885 47.0827L5.00926 47.0804L11.7391 47.0728L11.7431 47.0728L21.1772 47.0804L23.2576 47.0821L23.2593 45.0017L23.2642 38.7785L23.2659 36.6981L21.1855 36.6965L19.6313 36.6952L21.8476 31.5656L26.6459 42.2598L28.445 46.2695L30.4058 42.3363L35.8694 31.3771L37.9904 36.6953L36.5845 36.6965L34.5041 36.6982L34.5059 38.7786L34.511 45.0017L34.5127 47.0821L36.5931 47.0804L45.6399 47.0728L45.6441 47.0728L51.9902 47.0804L54.0706 47.0829L54.0731 45.0025L54.0804 38.7793L54.0829 36.699L52.0025 36.6965L49.1519 36.6931L38.6424 10.3421L36.9211 6.0264L34.8481 10.1846L28.938 22.0395L23.6027 10.1484Z" fill="#F21717" stroke="white" stroke-width="4.16079"/>
</svg>
