<svg width="25" height="22" viewBox="0 0 25 22" fill="none" xmlns="http://www.w3.org/2000/svg">
<path d="M0.44157 10.4371L6.20208 12.5871L8.4318 19.7576C8.5744 20.2169 9.136 20.3866 9.5088 20.0819L12.7198 17.4642C13.0563 17.19 13.5358 17.1763 13.8875 17.4316L19.679 21.6364C20.0778 21.9262 20.6427 21.7077 20.7427 21.2259L24.9853 0.818288C25.0944 0.291958 24.5773 -0.147132 24.0761 0.0467076L0.43482 9.1668C-0.14859 9.3918 -0.14351 10.2178 0.44157 10.4371ZM8.0724 11.4426L19.3306 4.5086C19.5329 4.3844 19.7411 4.658 19.5673 4.8191L10.2761 13.4558C9.9495 13.7598 9.7388 14.1666 9.6792 14.6082L9.3627 16.9537C9.3208 17.2669 8.8808 17.298 8.7944 16.9949L7.5772 12.7178C7.4378 12.23 7.6409 11.7089 8.0724 11.4426Z" fill="white"/>
</svg>
