<svg width="35" height="35" viewBox="0 0 35 35" fill="none" xmlns="http://www.w3.org/2000/svg">
<path d="M19.0631 28.2727C7.10494 28.2727 0.284197 19.9121 0 6H5.99001C6.18676 16.2111 10.6028 20.5364 14.1006 21.4282V6H19.7408V14.8065C23.1948 14.4275 26.8238 10.4144 28.048 6H33.6883C33.2269 8.28945 32.3074 10.4572 30.9871 12.3676C29.6668 14.2781 27.9741 15.8901 26.015 17.1029C28.2019 18.2111 30.1334 19.7797 31.6822 21.7051C33.2309 23.6305 34.3617 25.8689 35 28.2727H28.7913C28.2184 26.1848 27.054 24.3158 25.444 22.8999C23.834 21.4841 21.85 20.5843 19.7408 20.3134V28.2727H19.0631Z" fill="black"/>
</svg>
