<svg width="35" height="35" viewBox="0 0 35 35" fill="none" xmlns="http://www.w3.org/2000/svg">
<path d="M29.878 5.10417C26.5853 1.82283 22.1952 0 17.561 0C7.92683 0 0.122 7.77783 0.122 17.3785C0.122 20.4167 0.975666 23.4548 2.439 26.007L0 35L9.26833 32.5695C11.8293 33.9063 14.6342 34.6353 17.561 34.6353C27.1952 34.6353 35 26.8577 35 17.257C34.878 12.7605 33.1707 8.38533 29.878 5.10417ZM25.9757 23.5763C25.6098 24.5487 23.9025 25.5208 23.0488 25.6423C22.317 25.7638 21.3415 25.7638 20.3658 25.5208C19.7562 25.2778 18.9025 25.0347 17.9268 24.5487C13.5367 22.7257 10.7317 18.3507 10.4878 17.9862C10.2438 17.743 8.6585 15.677 8.6585 13.4895C8.6585 11.302 9.75617 10.3298 10.122 9.84367C10.4878 9.35767 10.9757 9.35767 11.3415 9.35767C11.5853 9.35767 11.9512 9.35767 12.1952 9.35767C12.439 9.35767 12.8048 9.23617 13.1707 10.0868C13.5367 10.9375 14.3902 13.125 14.5122 13.2465C14.6342 13.4897 14.6342 13.7327 14.5122 13.9757C14.3902 14.2187 14.2683 14.4618 14.0243 14.7048C13.7805 14.9478 13.5365 15.3125 13.4147 15.434C13.1707 15.677 12.9268 15.9202 13.1707 16.2847C13.4147 16.7708 14.2683 18.1077 15.6098 19.3228C17.317 20.7812 18.6585 21.2673 19.1463 21.5105C19.6342 21.7535 19.878 21.632 20.122 21.3888C20.3658 21.1458 21.2195 20.1737 21.4633 19.6875C21.7073 19.2013 22.0732 19.323 22.439 19.4445C22.8048 19.566 25 20.6597 25.3658 20.9028C25.8537 21.1458 26.0975 21.2673 26.2195 21.3888C26.3415 21.7535 26.3415 22.6042 25.9757 23.5763Z" fill="black"/>
</svg>
