<svg width="158" height="24" viewBox="0 0 158 24" fill="none" xmlns="http://www.w3.org/2000/svg">
<path d="M21.751 4.62158C22.3277 5.3521 22.816 6.14574 23.2059 6.98658L12.1458 14.9736L7.52344 12.1351V8.72016L12.1458 11.5587L21.751 4.62158Z" fill="#21A038"/>
<path d="M2.80508 11.894C2.80508 11.7408 2.80889 11.5886 2.81652 11.4372L0.0152562 11.3027C0.00572159 11.4989 3.3852e-06 11.6969 3.3852e-06 11.8968C-0.00118848 13.4584 0.312354 15.0048 0.922652 16.4473C1.53295 17.8899 2.42798 19.2003 3.55641 20.3032L5.54341 18.3576C4.67479 17.5101 3.98571 16.5027 3.51577 15.3935C3.04583 14.2843 2.80431 13.095 2.80508 11.894Z" fill="url(#paint0_linear_1057_938)"/>
<path d="M12.1426 2.74707C12.2989 2.74707 12.4543 2.75268 12.6088 2.76015L12.7489 0.0149955C12.5481 0.00565503 12.3459 0.000985384 12.1426 0.000985384C10.5478 -0.000919838 8.96836 0.305795 7.49494 0.903517C6.02152 1.50124 4.68314 2.3782 3.55664 3.48404L5.54365 5.43059C6.4088 4.57937 7.43719 3.90408 8.56967 3.44355C9.70216 2.98301 10.9163 2.74632 12.1426 2.74707Z" fill="url(#paint1_linear_1057_938)"/>
<path d="M12.1425 21.0414C11.9861 21.0414 11.8307 21.0414 11.6753 21.0293L11.5352 23.7735C11.7366 23.7835 11.9391 23.7885 12.1425 23.7885C13.7366 23.7901 15.3153 23.4832 16.7879 22.8853C18.2605 22.2874 19.598 21.4103 20.7237 20.3045L18.7405 18.3589C17.8752 19.2097 16.8469 19.8846 15.7146 20.3449C14.5824 20.8053 13.3684 21.042 12.1425 21.0414Z" fill="url(#paint2_linear_1057_938)"/>
<path d="M17.4056 4.34332L19.7664 2.63869C17.6086 0.927018 14.9152 -0.00475142 12.1387 1.82208e-05V2.74704C14.0188 2.74476 15.8553 3.30137 17.4056 4.34332Z" fill="url(#paint3_linear_1057_938)"/>
<path d="M24.2843 11.8942C24.2858 11.1796 24.222 10.4662 24.0936 9.7627L21.4802 11.6495C21.4802 11.7308 21.4802 11.812 21.4802 11.8942C21.4809 13.1722 21.2074 14.4362 20.6775 15.604C20.1476 16.7719 19.3731 17.8176 18.4043 18.6735L20.2893 20.7144C21.5489 19.6004 22.5554 18.2396 23.2436 16.7202C23.9319 15.2007 24.2864 13.5565 24.2843 11.8942Z" fill="#21A038"/>
<path d="M12.1422 21.0411C10.8375 21.0415 9.54724 20.7735 8.35494 20.2545C7.16271 19.7354 6.09501 18.9768 5.22102 18.0278L3.13867 19.8735C4.27563 21.1076 5.66468 22.0938 7.21574 22.7682C8.7668 23.4425 10.4452 23.79 12.1422 23.7881V21.0411Z" fill="url(#paint4_linear_1057_938)"/>
<path d="M5.88095 5.11462L3.99691 3.07373C2.73698 4.18746 1.73008 5.54819 1.04152 7.06766C0.352966 8.58713 -0.00187724 10.2314 7.46859e-06 11.8939H2.80509C2.80451 10.6159 3.07802 9.352 3.60788 8.18414C4.13776 7.01633 4.91217 5.97055 5.88095 5.11462Z" fill="url(#paint5_linear_1057_938)"/>
<mask id="mask0_1057_938" style="mask-type:luminance" maskUnits="userSpaceOnUse" x="30" y="4" width="128" height="16">
<path d="M157.534 4.13818H30.8223V19.8623H157.534V4.13818Z" fill="white"/>
</mask>
<g mask="url(#mask0_1057_938)">
<path d="M70.069 6.80223L73.5432 4.32324H61.916V19.2198H73.5432V16.7408H65.2337V12.9251H72.322V10.4461H65.2337V6.80223H70.069Z" fill="#21A038"/>
<path d="M54.0927 10.1267H50.056V6.80147H56.4984L59.9704 4.31494H46.7402V19.2115H53.6657C57.5484 19.2115 59.7767 17.5071 59.7767 14.5346C59.7767 11.6909 57.7584 10.1267 54.0927 10.1267ZM53.5163 16.7317H50.056V12.6041H53.5163C55.6164 12.6041 56.601 13.2958 56.601 14.668C56.601 16.04 55.5533 16.7317 53.5163 16.7317Z" fill="#21A038"/>
<path d="M82.0907 4.32129H75.7617V19.2178H79.079V14.9979H82.0907C86.1288 14.9979 88.6267 12.9399 88.6267 9.65163C88.6267 6.36343 86.1288 4.32129 82.0907 4.32129ZM82.0208 12.517H79.079V6.80217H82.0208C84.1447 6.80217 85.317 7.81759 85.317 9.66072C85.317 11.5038 84.1447 12.517 82.0208 12.517Z" fill="#21A038"/>
<path d="M41.7626 15.7023C40.9056 16.1518 39.9455 16.3845 38.9711 16.379C36.0546 16.379 33.9388 14.3623 33.9388 11.5854C33.9388 8.80835 36.0546 6.78733 38.9711 6.78733C40.0228 6.77003 41.0528 7.07892 41.9104 7.66893L44.2309 6.01373L44.074 5.90574C42.7204 4.75307 40.9117 4.14258 38.8415 4.14258C36.596 4.14258 34.5599 4.87429 33.1061 6.20548C32.3711 6.89089 31.7898 7.7157 31.3983 8.62843C31.0069 9.54115 30.8138 10.5222 30.8312 11.5104C30.8156 12.5086 31.0078 13.4997 31.3963 14.4244C31.7849 15.3492 32.3617 16.1885 33.0925 16.8925C34.553 18.2766 36.5846 19.0391 38.8141 19.0391C41.1437 19.0391 43.1799 18.2523 44.5586 16.8198L42.4815 15.3211L41.7626 15.7023Z" fill="#21A038"/>
<path d="M101.781 10.1267H97.7457V6.80147H106.417V4.31494H94.4277V19.2115H101.344C105.227 19.2115 107.455 17.5071 107.455 14.5346C107.464 11.6909 105.446 10.1267 101.781 10.1267ZM101.204 16.7317H97.7457V12.6041H101.204C103.304 12.6041 104.288 13.2958 104.288 14.668C104.288 16.04 103.25 16.7317 101.204 16.7317Z" fill="#21A038"/>
<path d="M145.17 19.19H141.807V4.29346H145.17V10.5501H147L151.943 4.29346H155.755L149.892 11.3799L156.7 19.19H152.238L147.234 13.3313H145.17V19.19Z" fill="#21A038"/>
<path d="M119.673 16.3593H112.559L111.353 19.252H107.773L114.446 4.35547H118.025L124.589 19.252H120.879L119.673 16.3593ZM118.559 13.6602L116.137 7.87462L113.701 13.6602H118.559Z" fill="#21A038"/>
<path d="M129.118 4.35547V10.576H136.078V4.35547H139.545V19.252H136.078V13.3823H129.118V19.252H125.65V4.35547H129.118Z" fill="#21A038"/>
</g>
<defs>
<linearGradient id="paint0_linear_1057_938" x1="4.12372" y1="19.9604" x2="1.1701" y2="11.2446" gradientUnits="userSpaceOnUse">
<stop offset="0.14" stop-color="#F1E813"/>
<stop offset="0.3" stop-color="#E6E418"/>
<stop offset="0.58" stop-color="#C9DA26"/>
<stop offset="0.89" stop-color="#A2CC39"/>
</linearGradient>
<linearGradient id="paint1_linear_1057_938" x1="4.35754" y1="3.96974" x2="12.2094" y2="0.915314" gradientUnits="userSpaceOnUse">
<stop offset="0.06" stop-color="#0FA7DF"/>
<stop offset="0.54" stop-color="#0098F8"/>
<stop offset="0.92" stop-color="#0290EA"/>
</linearGradient>
<linearGradient id="paint2_linear_1057_938" x1="11.3502" y1="22.1305" x2="20.2583" y2="20.0763" gradientUnits="userSpaceOnUse">
<stop offset="0.12" stop-color="#A2CC39"/>
<stop offset="0.28" stop-color="#86C239"/>
<stop offset="0.87" stop-color="#219F38"/>
</linearGradient>
<linearGradient id="paint3_linear_1057_938" x1="11.5552" y1="0.920051" x2="19.1589" y2="3.3153" gradientUnits="userSpaceOnUse">
<stop offset="0.06" stop-color="#0290EA"/>
<stop offset="0.79" stop-color="#0C89CA"/>
</linearGradient>
<linearGradient id="paint4_linear_1057_938" x1="3.84232" y1="19.5391" x2="12.1063" y2="22.6919" gradientUnits="userSpaceOnUse">
<stop offset="0.13" stop-color="#F1E813"/>
<stop offset="0.3" stop-color="#EAE616"/>
<stop offset="0.53" stop-color="#D8DF1F"/>
<stop offset="0.8" stop-color="#BAD52D"/>
<stop offset="0.98" stop-color="#A2CC39"/>
</linearGradient>
<linearGradient id="paint5_linear_1057_938" x1="1.045" y1="12.2264" x2="4.26154" y2="3.6851" gradientUnits="userSpaceOnUse">
<stop offset="0.07" stop-color="#A2CC39"/>
<stop offset="0.26" stop-color="#81C45E"/>
<stop offset="0.92" stop-color="#0FA7DF"/>
</linearGradient>
</defs>
</svg>
