<svg width="139" height="36" viewBox="0 0 139 36" fill="none" xmlns="http://www.w3.org/2000/svg">
<g clip-path="url(#clip0_1057_877)">
<path d="M40.6354 16.8397L41.1699 15.1646L39.4018 15.2188C39.2524 15.2188 38.1666 15.1886 37.1133 14.4407C37.1918 14.4483 37.2703 14.4588 37.3504 14.4588C38.4346 14.4588 39.4834 13.8195 39.9039 12.9057L40.6647 11.2547C39.7114 11.2667 38.8397 11.1491 38.8397 11.1491C38.8319 11.1476 38.1451 11.0617 37.3504 10.267C36.7805 9.69705 36.0752 9.3954 35.3113 9.3954C34.9771 9.3954 34.6783 9.4542 34.4212 9.53415C34.4612 9.39998 34.4996 9.26423 34.5213 9.12398C34.7645 7.57845 33.7481 6.39929 33.7481 6.40088L32.419 4.78899L31.5951 6.6828C31.592 6.68885 31.3841 7.13222 31.0114 7.34928C30.899 6.79288 30.6233 6.16715 30.0334 5.56851C28.9214 4.44062 27.5678 4.27324 26.8593 4.27324C26.5312 4.27324 26.2972 4.30795 26.2401 4.31697L24.6354 4.62616C24.7278 4.27483 24.9249 3.66408 25.2853 3.11372L26.1709 1.76273L23.9423 2.01152L23.2323 0.535283L21.8586 1.22893L20.5881 0L19.3205 1.22893L17.9421 0.535283L17.2336 2.01152L15.0067 1.76273L15.8937 3.11372C16.2542 3.66408 16.4513 4.27324 16.5422 4.62458L15.0112 4.32907L14.9589 4.32005C14.8819 4.30795 14.6494 4.27324 14.3198 4.27324C13.6113 4.27324 12.2577 4.44212 11.1487 5.56851C10.5573 6.16567 10.2817 6.79288 10.1677 7.34928C9.79813 7.13519 9.59169 6.69788 9.59169 6.69788L8.76621 4.79345L7.41561 6.41596C7.25075 6.62548 6.4361 7.73385 6.65783 9.12705C6.68098 9.2658 6.71792 9.40147 6.75798 9.53573C6.50233 9.45578 6.20351 9.39698 5.86936 9.39698C5.10545 9.39698 4.40011 9.69855 3.82873 10.2686C3.03704 11.0602 2.35324 11.1491 2.35948 11.1491C2.35948 11.1491 1.63713 11.2757 0.519039 11.2561L1.27521 12.9073C1.69571 13.8226 2.74597 14.4604 3.82873 14.4604C3.91036 14.4604 3.98886 14.4497 4.06898 14.4422C3.01862 15.1901 1.93284 15.2203 1.80189 15.2218L0 15.1646L0.545207 16.8382C0.819369 17.7008 1.73567 19.1302 3.49147 19.2839C3.30044 20.0681 2.87691 20.9456 1.94672 21.3241L0.605293 21.8654L1.3368 23.1124C1.74956 23.7849 2.71829 24.572 4.09816 24.572C4.39699 24.5705 4.68494 24.5418 4.96222 24.4846C5.03308 24.7922 5.12236 25.0998 5.22713 25.4043C5.63828 26.6015 5.28409 27.4369 5.27946 27.446L4.61721 28.8045L6.09572 29.186C6.11423 29.192 6.56081 29.3111 7.11991 29.3111C7.37404 29.3111 7.61577 29.2856 7.84376 29.2328C8.01617 29.1935 8.18106 29.1408 8.33962 29.0774C8.53061 29.4137 8.76317 29.7198 9.03424 29.9942C9.98143 30.9457 11.3229 31.4282 13.0231 31.4282H13.0292L14.2429 31.4131L11.7355 32.4324L13.6391 33.3326C14.3306 33.6628 15.1515 34.0533 15.9862 34.3519L15.749 34.9883L16.4051 35.2808C16.4636 35.3063 17.7249 35.8598 19.8226 35.9774C19.8226 35.9774 20.3293 36 20.608 36C20.8868 36 21.3873 35.9759 21.3873 35.9759C23.4711 35.8553 24.7231 35.3079 24.7817 35.2808L25.4393 34.9868L25.199 34.3489C26.0585 34.0413 26.9085 33.6356 27.5708 33.319L29.4389 32.4309L26.9393 31.4102L28.1575 31.4252C29.8594 31.4252 31.2024 30.9427 32.1479 29.9897C32.4174 29.7168 32.6501 29.4107 32.8426 29.0744C33.0012 29.1378 33.1675 29.1905 33.34 29.2298C33.5664 29.2825 33.8082 29.3082 34.0623 29.3082C34.6121 29.3082 35.0634 29.1891 35.0757 29.186L36.5603 28.8016L35.9135 27.4686C35.8981 27.4339 35.5439 26.6 35.9551 25.4013C36.0598 25.0952 36.1475 24.7877 36.2184 24.4815C36.4972 24.5388 36.7883 24.569 37.0886 24.569C38.8458 24.569 39.6882 23.3582 39.8515 23.0958L40.5754 21.8624L39.2339 21.3226C38.3022 20.944 37.8802 20.065 37.6908 19.2825C39.4218 19.1377 40.352 17.7083 40.6354 16.8397ZM16.6591 5.2021L16.6408 5.20666L16.6562 5.18703L16.6591 5.2021Z" fill="white"/>
<path d="M20.5898 5.12842C19.1698 5.1299 18.1057 5.58527 17.873 6.12055L20.5898 7.17009L23.3065 6.12055C23.0755 5.58527 22.0113 5.1299 20.5898 5.12842Z" fill="white"/>
<path d="M20.6173 32.9103H20.6142H20.591H20.5649H20.5633C19.7024 32.9164 18.5181 32.7429 17.9467 32.5801L17.2598 34.4C17.7126 34.5584 19.2466 34.8599 20.591 34.8599C21.9325 34.8599 23.468 34.5569 23.9192 34.4L23.2338 32.5801C22.661 32.7444 21.4781 32.9164 20.6173 32.9103Z" fill="white"/>
<path d="M25.8144 31.1011C25.3031 31.3846 24.1618 31.8097 23.498 32.0073L24.0556 33.5106C25.0828 33.2361 25.9298 32.915 26.6306 32.5712L25.474 32.1942L25.8144 31.1011Z" fill="white"/>
<path d="M15.3651 31.1011L15.707 32.1942L14.5488 32.5712C15.248 32.915 16.0997 33.2361 17.1223 33.5106L17.6798 32.0073C17.0191 31.8097 15.8763 31.383 15.3651 31.1011Z" fill="white"/>
<path d="M20.59 3.38818C21.6604 3.38818 22.7107 3.63847 23.5177 4.07885C23.5917 3.836 23.6948 3.54198 23.835 3.23437L23.5301 3.27057L23.2097 3.30379L23.0741 3.01879L22.666 2.17442L21.9221 2.55431L21.6327 2.69909L21.4016 2.47597L20.593 1.69189L19.7861 2.47597L19.555 2.69909L19.2655 2.55431L18.517 2.17442L18.1135 3.01879L17.975 3.30379L17.6546 3.27057L17.3496 3.23437C17.4898 3.54346 17.5915 3.836 17.6669 4.07885C18.4755 3.63847 19.5227 3.38818 20.59 3.38818Z" fill="white"/>
<path d="M36.9316 13.1472C37.0703 13.1939 37.2119 13.215 37.3521 13.215C37.9573 13.215 38.5426 12.832 38.7443 12.3932C38.7443 12.3932 37.6339 12.3269 36.4403 11.1402C36.06 10.7556 35.658 10.6411 35.313 10.6411C34.777 10.6411 34.375 10.9185 34.375 10.9185C35.8166 11.6694 36.1107 12.8757 36.9316 13.1472Z" fill="white"/>
<path d="M3.82825 13.215C3.96835 13.215 4.11006 13.1939 4.24563 13.1472C5.06953 12.8757 5.36524 11.6694 6.80681 10.9185C6.80681 10.9185 6.40322 10.6411 5.87039 10.6411C5.52386 10.6411 5.12187 10.7556 4.73991 11.1402C3.54795 12.3269 2.4375 12.3932 2.4375 12.3932C2.63618 12.832 3.22296 13.215 3.82825 13.215Z" fill="white"/>
<path d="M37.3222 18.0488C37.3468 18.0503 37.3684 18.0503 37.3946 18.0503C38.9054 18.0503 39.4183 16.4654 39.4183 16.4654H39.389C39.1118 16.4654 36.8648 16.4022 35.2769 14.4254C34.2312 13.1257 33.3748 11.9827 31.6822 11.5333L31.516 11.5046L31.479 11.3388C31.4328 11.0855 31.6099 10.8488 32.0119 10.5924C34.3467 9.09519 32.7619 7.18618 32.7619 7.18618C32.7619 7.18618 32.0951 8.71367 30.6028 8.71367C30.5673 8.71367 30.5288 8.71209 30.4918 8.71209C30.3225 8.70309 30.1592 8.69702 29.9943 8.66244L29.7187 8.60957C29.7187 8.60957 30.1438 7.47722 29.1181 6.4368C28.3449 5.65124 27.4039 5.51855 26.8603 5.51855C26.5861 5.51855 26.412 5.55316 26.412 5.55316C26.928 6.21359 27.3007 7.30835 26.7047 7.98384C26.1904 8.56434 24.9336 8.59299 24.9336 9.45849C24.9336 9.82494 25.2832 10.2532 25.9115 10.6376C27.8013 11.8032 29.6771 13.3487 30.4564 15.4206C31.4313 18.005 30.3332 19.7195 28.7654 20.7026C28.7654 20.7026 29.2567 21.1459 29.9698 21.2017C30.1145 21.2153 30.2562 21.2213 30.3887 21.2213C31.8933 21.2213 32.6711 20.5307 32.6711 20.5307C32.6711 20.5307 32.5432 21.4851 31.7593 22.3718C31.037 23.1905 30.0883 23.6716 28.6421 23.6927C28.6421 23.6927 28.5959 24.35 29.2367 24.9185C29.6463 25.2774 30.5935 25.395 30.5935 25.395C30.5935 25.395 28.8208 25.7463 28.6252 28.3097C28.5189 29.6984 28.157 30.1809 28.157 30.1809H28.1894C32.303 30.1809 32.1967 26.7265 32.1967 26.7265C32.1967 26.7265 32.4831 27.7487 33.6305 28.0157C33.7691 28.0519 33.917 28.0655 34.0586 28.0655C34.4284 28.0655 34.7486 27.981 34.7486 27.981C34.7486 27.981 34.148 26.7401 34.744 25.0045C35.2384 23.5645 35.1583 22.4969 35.1583 22.4969C35.1583 22.4969 35.7127 23.3172 37.0866 23.3248H37.1004C38.2447 23.3248 38.7436 22.4759 38.7436 22.4759C36.0008 21.3615 36.2718 17.7638 36.2718 17.7638C36.2718 17.7638 36.6276 18.0231 37.3222 18.0488ZM36.4966 21.8063C35.3816 21.2681 34.6762 19.8386 34.5053 19.3229C34.3204 22.1576 32.9067 24.1254 31.2541 26.0192C30.3963 27.0008 30.0976 27.9553 30.0976 27.9553C30.0976 27.9553 30.2623 26.8742 31.0046 25.9937C32.5463 24.1796 34.011 21.9224 34.1203 19.3124C34.1957 17.4908 33.7168 16.0132 32.9699 14.7964C33.3872 16.0645 33.3287 17.6175 31.9102 19.0665C31.9102 19.0665 34.7332 15.7538 30.786 12.3581C29.2058 11.066 27.4778 10.2683 26.5877 9.70284C29.8034 10.7297 31.3728 9.59874 31.3728 9.59874C30.3455 10.4702 29.0164 10.4552 28.1924 10.3301C28.4157 10.4372 28.6484 10.5487 28.8994 10.6799C31.6099 12.1214 34.0464 14.4932 34.4622 17.7789V17.7532C35.0936 20.9785 36.4966 21.8063 36.4966 21.8063Z" fill="white"/>
<path d="M10.5845 25.395C10.5845 25.395 11.5317 25.2789 11.9414 24.9185C12.5805 24.35 12.5359 23.6927 12.5359 23.6927C11.0882 23.673 10.141 23.1905 9.41413 22.3733C8.63631 21.4867 8.50697 20.5322 8.50697 20.5322C8.50697 20.5322 9.28464 21.2228 10.7878 21.2228C10.9234 21.2228 11.0636 21.2168 11.2083 21.2032C11.9214 21.1474 12.4142 20.7041 12.4142 20.7041C10.8463 19.721 9.74678 18.005 10.7201 15.4206C11.501 13.3502 13.3752 11.8032 15.265 10.6376C15.8933 10.2532 16.2429 9.82637 16.2429 9.45849C16.2429 8.59299 14.9877 8.56434 14.4732 7.98384C13.8774 7.30835 14.2516 6.2121 14.7659 5.55316C14.7659 5.55316 14.595 5.51855 14.3192 5.51855C13.7772 5.51855 12.8361 5.65124 12.063 6.4368C11.0342 7.47722 11.4609 8.60957 11.4609 8.60957L11.1852 8.66244C11.0205 8.69702 10.8556 8.70309 10.6877 8.71209C10.6493 8.71209 10.6153 8.71367 10.5784 8.71367C9.08299 8.71367 8.4192 7.18767 8.4192 7.18767C8.4192 7.18767 6.83441 9.09669 9.16764 10.5939C9.56965 10.8503 9.74526 11.087 9.69905 11.3403L9.66198 11.5062L9.49261 11.5349C7.80314 11.9842 6.94533 13.1271 5.89961 14.4269C4.31481 16.4007 2.07087 16.4654 1.79067 16.4654H1.75977C1.75977 16.4654 2.27267 18.0503 3.78349 18.0503C3.80815 18.0503 3.82969 18.0503 3.85586 18.0488C4.55042 18.0246 4.90772 17.7638 4.90772 17.7638C4.90772 17.7638 5.17575 21.3599 2.43592 22.4759C2.43592 22.4759 2.93493 23.3248 4.07919 23.3248H4.09308C5.46832 23.3172 6.02129 22.4969 6.02129 22.4969C6.02129 22.4969 5.94117 23.5645 6.43404 25.0045C7.02997 26.7401 6.43243 27.981 6.43243 27.981C6.43243 27.981 6.7528 28.0655 7.12086 28.0655C7.26408 28.0655 7.41043 28.0519 7.54751 28.0157C8.69325 27.7487 8.98129 26.7265 8.98129 26.7265C8.98129 26.7265 8.87655 30.1809 12.9902 30.1809H13.0194C13.0194 30.1809 12.6591 29.6984 12.5543 28.3097C12.3573 25.7463 10.5845 25.395 10.5845 25.395ZM9.92392 26.0192C8.27137 24.1254 6.85908 22.1576 6.67268 19.3229C6.50178 19.8371 5.79946 21.2681 4.68449 21.8063C4.68449 21.8063 6.0859 20.9785 6.71585 17.7532V17.7789C7.13324 14.4948 9.56812 12.1214 12.2801 10.6799C12.5282 10.5472 12.7638 10.4357 12.9856 10.3301C12.1616 10.4552 10.8325 10.4702 9.80525 9.59874C9.80525 9.59874 11.3746 10.7297 14.5888 9.70284C13.6987 10.2683 11.9722 11.066 10.392 12.3581C6.4432 15.7538 9.26774 19.0665 9.26774 19.0665C7.84783 17.6159 7.79089 16.0645 8.20819 14.7964C7.45974 16.0147 6.98227 17.4908 7.05927 19.3124C7.16706 21.9224 8.63166 24.1796 10.1703 25.9937C10.9142 26.8727 11.0821 27.9553 11.0821 27.9553C11.0821 27.9553 10.7801 27.0008 9.92392 26.0192Z" fill="white"/>
<path d="M17.549 12.7658C17.6167 12.8366 17.6829 12.9137 17.7462 12.9905C17.7615 13.0086 17.7753 13.0252 17.7907 13.0463C17.8493 13.1231 17.9094 13.2047 17.9664 13.2875C17.9786 13.3041 17.9911 13.3238 18.0048 13.3433C18.0742 13.4459 18.1389 13.5515 18.2035 13.6601C18.7964 14.6627 19.7468 15.2613 20.5891 15.2628C21.4331 15.2613 22.3803 14.6627 22.9763 13.6601C23.0426 13.5484 23.1088 13.4399 23.178 13.3388C23.1888 13.3238 23.1997 13.3102 23.2088 13.2951C23.2673 13.2092 23.329 13.1247 23.3937 13.0433C23.4075 13.0252 23.4198 13.0101 23.4322 12.995C23.4984 12.9151 23.5661 12.8367 23.6355 12.7643C23.6477 12.7523 23.6569 12.7417 23.6678 12.7327C23.9696 12.4296 24.33 12.1988 24.8012 12.0707L24.5918 11.9516H24.5796L23.7447 11.4767L22.887 10.9956L20.5953 12.217L20.5891 12.2124L20.5845 12.217L18.2913 10.9956L17.4351 11.4751L16.5988 11.9501H16.5895L16.377 12.0692C16.8498 12.1973 17.2086 12.425 17.512 12.7281C17.5258 12.7402 17.5351 12.7538 17.549 12.7658ZM19.662 12.6678H20.6322H21.6009V13.3192C21.3731 13.0463 20.9295 13.1021 20.9295 13.1021V14.0415C20.9295 14.0415 20.9464 14.5029 21.1112 14.7034H20.6322H20.1517C20.3196 14.5044 20.335 14.0415 20.335 14.0415V13.1021C20.335 13.1021 19.893 13.0463 19.662 13.3192V12.6678Z" fill="white"/>
<path d="M20.3917 11.4038V7.59048L17.9121 6.76709L18.5666 10.4629L20.3917 11.4038ZM19.8588 8.52685V9.139L19.7387 9.0847C19.7325 9.0802 19.557 9.04098 19.2489 8.8027C18.7407 8.41675 18.7315 8.06088 18.7315 8.06088L19.8588 8.52685Z" fill="white"/>
<path d="M22.6156 10.4629L23.2671 6.76709L20.7891 7.59048V11.4038L22.6156 10.4629ZM21.322 8.52685L22.4492 8.06238C22.4492 8.06238 22.4401 8.41825 21.9303 8.8042C21.6238 9.04248 21.4467 9.08163 21.4405 9.0862L21.3203 9.14043V8.52685H21.322Z" fill="white"/>
<path d="M16.8834 20.2446C17.1253 20.3305 17.4179 20.3486 17.5673 20.3486C17.5735 20.3305 17.5811 20.3078 17.5889 20.2808C17.6027 20.237 17.6151 20.1948 17.6244 20.1465C17.6659 19.9355 17.6813 19.6958 17.6843 19.5419C17.5826 19.4801 17.4394 19.37 17.3594 19.2056C17.267 19.0157 17.1361 18.9282 16.9435 18.9282C16.6941 18.9282 16.4261 19.0745 16.3121 19.1439C16.2213 19.67 16.617 20.1481 16.8834 20.2446Z" fill="white"/>
<path d="M22.3685 18.2207C21.908 18.7108 21.007 19.5643 20.9624 19.608L20.9085 19.6623L18.0609 19.6185C18.0593 19.8945 18.0131 20.1297 17.9685 20.3016C17.9608 20.3302 17.9531 20.3604 17.9453 20.3905L21.3335 20.9862C21.6862 20.7449 22.6565 20.0512 23.0323 19.7799C22.7581 19.3879 22.7319 18.9234 22.7935 18.5962C22.6149 18.4831 22.4778 18.3565 22.3685 18.2207Z" fill="white"/>
<path d="M22.7543 14.8679C22.0981 15.5057 21.4682 15.7409 20.9062 15.7952C20.8045 15.8057 20.7013 15.8117 20.5966 15.8117H20.5888H20.5826C20.478 15.8117 20.3732 15.8057 20.2715 15.7952C20.173 15.7861 20.0699 15.771 19.9667 15.7484C19.9297 15.8916 19.8834 16.1917 20.0159 16.4752C20.1345 16.733 20.3763 16.9245 20.729 17.0513L20.8475 17.0964L20.8491 17.2216C20.8491 17.2592 20.8768 18.0705 21.7809 18.2951C21.9287 18.1459 22.0627 18.0117 22.1613 17.9C21.9764 17.4749 22.0734 17.0406 22.3414 16.828C22.3292 16.8732 22.2121 17.9378 23.0839 18.3328L23.2271 18.3992L23.1839 18.5485C23.17 18.5937 22.8789 19.6236 23.9339 20.0066L24.1203 20.0759L24.0371 20.2539C24.0187 20.2931 23.6044 21.228 24.5793 21.7587H26.6938V20.1152C25.9423 20.0246 25.6234 19.4336 25.5418 19.0144C25.1922 18.9556 24.9212 18.8078 24.7363 18.5666C24.2927 17.9951 24.6747 17.4719 24.6793 17.4432C24.6778 17.4478 24.6793 18.0056 25.0305 18.3494C25.2045 18.5153 25.4109 18.6435 25.7235 18.6722L25.8775 18.6857L25.8914 18.8396C25.8944 18.8726 25.9792 19.6266 26.6953 19.7457L26.6938 16.3892C26.6938 15.869 26.8494 15.3458 27.0357 14.8633H22.7543V14.8679Z" fill="white"/>
<path d="M17.0648 16.4051L17.0078 18.5432L17.2557 18.5795L17.8625 16.5287L17.5545 15.8984L17.0648 16.4051Z" fill="white"/>
<path d="M23.7556 26.211C23.7741 26.211 23.7956 26.214 23.8156 26.2185C24.193 26.3241 24.2885 27.657 24.9507 27.7761C25.0154 27.7897 25.0755 27.7927 25.1278 27.7927C25.3188 27.7927 25.4328 27.7128 25.556 27.5711C25.556 27.5711 25.2233 27.0584 24.9739 26.7132C24.6427 26.2608 24.3856 25.7133 23.7695 25.7133C23.7556 25.7133 23.7372 25.7133 23.7218 25.715C23.5185 25.7255 23.3937 25.8219 23.3937 25.8219C23.1442 25.6682 22.9117 25.6154 22.7006 25.6154C22.3141 25.6154 22.0138 25.7889 21.8643 25.7889H21.8582L20.4813 25.6562C20.2657 25.6365 20.0964 25.4239 20.0348 25.341C20.0193 25.3183 20.0116 25.3048 20.0116 25.3048C20.0116 25.2686 20.0116 25.2309 20.0086 25.1977C19.9624 24.0955 19.0907 23.6235 18.7811 23.616C18.7811 23.616 18.818 23.4064 18.7334 23.3265L18.43 23.6868L17.4335 23.1968L18.1435 24.0096L17.5413 24.6714C17.4658 24.747 17.4751 24.8495 17.5059 24.8916L17.7662 25.1163L18.0958 24.9203C18.1127 24.9083 18.142 24.9052 18.1789 24.9052C18.2698 24.9052 18.4069 24.9278 18.5301 24.9278C18.664 24.9278 18.7811 24.8991 18.795 24.7755C18.7534 25.1841 18.3669 25.8943 18.621 26.4522L18.8089 26.873L17.5922 26.701L17.0223 27.6435C16.8468 27.9571 16.8191 28.2963 16.9884 28.4803L17.2009 28.7412C17.2009 28.7412 17.4997 28.4305 17.5675 28.227L17.4704 28.1229C17.3888 28.0355 17.3935 27.9571 17.4428 27.8622L17.8001 27.2815L19.2369 27.6133L19.3124 27.4866C19.4094 27.3283 19.5497 27.28 19.7037 27.28C19.7668 27.28 19.8315 27.2876 19.8992 27.2982C20.1657 27.3495 20.6046 27.4188 21.0436 27.4188C21.5256 27.4188 22.003 27.3344 22.257 27.0555C22.7776 27.8109 23.8326 27.9315 23.7494 28.3144L23.4723 29.6082C23.6556 29.6007 23.8326 29.5886 24.0005 29.5659L24.2639 28.2194C24.2932 28.0731 24.3208 27.8756 24.3208 27.8756C24.2192 27.7746 23.9728 27.5605 23.8342 27.3012C23.6478 26.9513 23.7494 26.7689 23.5754 26.3135C23.5816 26.3166 23.6339 26.211 23.7556 26.211ZM18.3807 24.3201C18.3098 24.3186 18.259 24.2598 18.262 24.1905C18.2683 24.1242 18.3252 24.0714 18.3945 24.0774C18.4654 24.0804 18.5162 24.1407 18.5132 24.2071C18.5069 24.2734 18.4485 24.3247 18.3807 24.3201Z" fill="white"/>
<path d="M16.4178 27.4351C16.4178 27.4351 16.8937 27.2436 16.9368 27.1064L16.8737 26.9511C16.829 26.85 16.8351 26.7399 16.9214 26.6797L17.4357 26.3313L18.2952 26.4927C18.2952 26.4927 18.1396 26.3027 18.155 26.0478L17.3357 25.8774L16.5625 26.3388C16.2314 26.5816 16.2067 26.9781 16.3161 27.2133L16.4178 27.4351Z" fill="white"/>
<path d="M22.4922 29.6278C22.6462 29.6218 22.8156 29.6188 23.002 29.6188C23.002 29.6188 23.444 28.3537 23.4685 28.313C23.2207 28.2059 22.7062 27.9389 22.5076 27.8169C22.6385 28.0084 22.9573 28.2285 22.8942 28.3974L22.4922 29.6278Z" fill="white"/>
<path d="M26.6981 22.125H14.4805V26.6244C14.4805 28.464 15.8405 29.6161 17.8471 29.6161C19.5244 29.6161 19.9662 29.6793 20.5901 30.2855C21.0198 29.8664 21.3756 29.7095 22.1055 29.6507L22.1224 29.5813L22.5075 28.4158C22.4859 28.3901 21.8561 27.689 21.8561 27.689C21.6065 27.7705 21.3971 27.7841 21.0445 27.7841C20.6825 27.7841 20.2744 27.7433 19.8323 27.6619C19.7877 27.6514 19.7461 27.6483 19.7045 27.6483C19.6506 27.6483 19.646 27.6528 19.6321 27.6785L19.5551 27.802L19.415 28.0283L19.1517 27.9695L17.9796 27.6995L17.8194 27.959L17.844 27.986L17.9873 28.1399L17.9242 28.3404C17.8379 28.6028 17.5576 28.9088 17.4729 28.9934L17.1802 29.3009L16.9139 28.9707L16.7137 28.7249C16.5026 28.4942 16.4534 28.1399 16.5719 27.769C16.5688 27.7719 16.5642 27.7734 16.5597 27.7734L16.2285 27.9077L16.079 27.5909L15.9744 27.3664C15.7943 26.9713 15.8603 26.3938 16.3456 26.0454L17.2897 25.5237L18.1876 25.6972C18.2091 25.6127 18.2414 25.3111 18.2676 25.2343C18.2507 25.2328 18.2338 25.2282 18.2167 25.2282L17.6993 25.4167L17.2003 25.079C17.2003 25.079 17.0047 24.8949 17.1818 24.711L17.6654 23.9948L16.441 22.4899L18.323 23.2469L18.4478 23.0946L18.7019 22.7975L18.9899 23.066C19.0715 23.1428 19.1177 23.2378 19.1408 23.3328C19.6598 23.5304 20.5885 24.1139 20.6701 25.0623L20.3791 25.1769V25.1845C20.4453 25.2613 20.5007 25.2931 20.5176 25.296L21.8606 25.4258C21.8945 25.4197 21.9377 25.4046 21.9854 25.391C22.1517 25.3353 22.4028 25.2554 22.7 25.2554C22.9418 25.2554 23.1758 25.3096 23.4007 25.4122C23.4839 25.382 23.5856 25.3594 23.7027 25.3519L23.7672 25.3504C24.4865 25.3504 24.8437 25.8765 25.1303 26.2958C25.178 26.3681 25.2257 26.4375 25.275 26.5053C25.526 26.8522 25.854 27.3603 25.868 27.3815L26.0158 27.6077L25.834 27.8142C25.6939 27.9725 25.4845 28.158 25.1241 28.158C25.0502 28.158 24.9686 28.1504 24.8808 28.1338C24.8038 28.1203 24.7345 28.0976 24.6667 28.0705C24.6559 28.1399 24.6421 28.2228 24.6282 28.2936L24.3926 29.4969C25.8017 29.1577 26.6966 28.1157 26.6966 26.626L26.6981 22.125Z" fill="#FFDD2D"/>
<path d="M14.4813 21.7632H23.9822C23.5078 21.2837 23.514 20.676 23.6357 20.2809C23.4971 20.2161 23.3831 20.1376 23.2815 20.0532C22.9103 20.3216 21.7768 21.1299 21.4811 21.3318L21.418 21.3741L17.6894 20.7137H17.6139C17.5246 20.7137 17.3937 20.7106 17.2504 20.694C17.2104 20.8584 17.0657 20.9715 16.8993 20.9715C16.8808 20.9715 16.8592 20.97 16.8392 20.9655C16.7422 20.9489 16.6576 20.9006 16.6006 20.8207C16.542 20.7423 16.519 20.6488 16.5359 20.5524L16.5497 20.4739C16.1647 20.2086 15.8105 19.6159 15.9675 18.9917L15.9829 18.9254L16.0369 18.8877C16.0446 18.8817 16.1092 18.8394 16.2047 18.7851L15.9337 18.7444C15.832 18.7263 15.7643 18.6343 15.7797 18.5364C15.7966 18.4368 15.8921 18.3659 15.9922 18.3855L16.6375 18.4851L16.696 16.2594L17.6571 15.2643L18.2562 16.4993L17.6231 18.6404L18.1931 18.7278C18.2931 18.7429 18.3624 18.8349 18.3471 18.9359C18.3316 19.0248 18.2546 19.0867 18.1638 19.0867C18.1545 19.0867 18.1437 19.0867 18.1345 19.0852L17.6709 19.0113C17.6771 19.0248 17.6862 19.0323 17.6925 19.0474C17.7417 19.147 17.8511 19.2194 17.9157 19.2495L20.7589 19.2933C20.8789 19.1787 21.1778 18.8922 21.4842 18.5891C20.785 18.3297 20.5309 17.7387 20.4877 17.3466C20.0966 17.1837 19.827 16.9395 19.6777 16.6213C19.4959 16.2279 19.5606 15.8343 19.6083 15.6428C19.2295 15.507 18.8307 15.2598 18.424 14.8647H14.1426C14.3259 15.3471 14.4813 15.8705 14.4813 16.3907V21.7632Z" fill="#FFDD2D"/>
<path d="M18.3945 24.0771C18.3251 24.0711 18.2666 24.1238 18.262 24.1902C18.2574 24.2595 18.3097 24.3183 18.3806 24.3198C18.4483 24.3258 18.5084 24.2745 18.5145 24.2067C18.5145 24.1404 18.4653 24.0786 18.3945 24.0771Z" fill="black"/>
<path d="M26.6825 32.236L25.9787 31.9721L26.1727 31.2604L26.3868 30.4839C26.3868 30.4839 25.1393 31.1459 23.382 31.6435C22.8831 31.7837 22.5057 31.847 22.5057 31.847V32.3747C22.5057 32.3747 21.5663 32.5346 20.616 32.5346H20.6052H20.5914H20.5729H20.5621C19.6119 32.5346 18.6724 32.3747 18.6724 32.3747V31.847C18.6724 31.847 18.2935 31.7837 17.7961 31.6435C16.0388 31.1459 14.7929 30.4839 14.7929 30.4839L15.0038 31.2604L15.2025 31.9721L14.4972 32.236L13.7148 32.5225C14.6127 32.9462 15.8555 33.5645 16.9938 33.869L16.7257 34.5868C16.7257 34.5868 18.1688 35.2306 20.5729 35.2367V35.2382H20.5807H20.5914H20.6007H20.6068V35.2367C23.014 35.2306 24.4554 34.5868 24.4554 34.5868L24.1859 33.869C25.324 33.5645 26.5701 32.9462 27.4633 32.5225L26.6825 32.236ZM14.5495 32.5708L15.7077 32.1939L15.3658 31.1006C15.8755 31.3841 17.0199 31.8093 17.6821 32.0068L17.1231 33.5101C16.1004 33.2343 15.2487 32.9131 14.5495 32.5708ZM20.5914 34.8597C19.2468 34.8597 17.7114 34.5566 17.2602 34.3999L17.947 32.5798C18.5168 32.7427 19.7027 32.9161 20.5636 32.91H20.5652H20.5914H20.6145H20.6176C21.4785 32.9161 22.6612 32.7427 23.2342 32.5798L23.9195 34.3999C23.4683 34.5581 21.9343 34.8597 20.5914 34.8597ZM24.0566 33.5101L23.4991 32.0068C24.1628 31.8093 25.304 31.3841 25.8154 31.1006L25.475 32.1939L26.6316 32.5708C25.9309 32.9131 25.0838 33.2343 24.0566 33.5101Z" fill="black"/>
<path d="M20.5889 3.82814C22.0213 3.82814 23.167 4.29262 23.8 4.78873C23.8 4.78873 23.9879 3.68039 24.6301 2.70185L23.4766 2.82996L22.8729 1.57396L21.7132 2.15903L20.5889 1.07031L19.4677 2.15903L18.3065 1.57396L17.7043 2.82996L16.5508 2.70185C17.193 3.68039 17.3809 4.78873 17.3809 4.78873C18.0154 4.29262 19.1581 3.82814 20.5889 3.82814ZM17.6519 3.27025L17.9723 3.30347L18.1109 3.01847L18.5144 2.1741L19.2629 2.5525L19.5525 2.69728L19.7835 2.47416L20.5905 1.69008L21.399 2.47416L21.6301 2.69728L21.9196 2.5525L22.6635 2.1741L23.0716 3.01847L23.2071 3.30347L23.5274 3.27025L23.8324 3.23406C23.6922 3.54324 23.589 3.83568 23.515 4.07853C22.708 3.63825 21.6577 3.38786 20.5874 3.38786C19.5217 3.38786 18.4728 3.63825 17.6627 4.07853C17.5873 3.83568 17.4856 3.54165 17.3454 3.23406L17.6519 3.27025Z" fill="black"/>
<path d="M37.3932 18.5345C39.246 18.5345 39.865 16.6889 39.8912 16.6105L40.0976 15.9605L39.403 15.9817H39.4C39.1551 15.9817 37.1114 15.9289 35.6621 14.1255L35.525 13.9582C34.5779 12.779 33.6801 11.6587 32.0752 11.1475C32.1214 11.1068 32.1877 11.0555 32.2786 10.9982C33.1302 10.4494 33.6261 9.78285 33.7509 9.00938C33.9326 7.8453 33.1749 6.91796 33.141 6.88027L32.6251 6.25604L32.3032 6.99639C32.2817 7.0431 31.7395 8.22833 30.5998 8.22833H30.5151C30.4366 8.22375 30.3626 8.22075 30.2887 8.21468C30.3288 7.68548 30.2302 6.86669 29.4725 6.09917C28.5623 5.17487 27.4442 5.03613 26.859 5.03613C26.5463 5.03613 26.3384 5.07382 26.3168 5.0769L25.5376 5.22762L26.0181 5.84739C26.3954 6.32536 26.7373 7.20751 26.3322 7.6689C26.2028 7.81515 25.9365 7.93425 25.6808 8.05335C25.1556 8.29005 24.4395 8.61878 24.4395 9.4572C24.4395 10.0001 24.8692 10.567 25.6484 11.0495C27.9556 12.4699 29.3785 13.9521 29.9931 15.5881C30.9433 18.1048 29.7035 19.5402 28.4992 20.2957L27.9585 20.6364L28.4314 21.0616C28.4945 21.116 29.0736 21.615 29.9284 21.6875C30.09 21.698 30.2456 21.707 30.3904 21.707C30.9387 21.707 31.4054 21.6226 31.7841 21.5094C31.6794 21.6889 31.5516 21.8714 31.3899 22.0553C30.7015 22.8363 29.8544 23.1923 28.6362 23.2103L28.1834 23.2179L28.148 23.6627C28.1434 23.7516 28.1096 24.5765 28.9072 25.2776C29.029 25.3861 29.1768 25.4752 29.3308 25.5491C28.7902 26.0255 28.2403 26.8548 28.1342 28.2767C28.0449 29.4634 27.7553 29.9022 27.7522 29.9066L27.2517 30.6545L28.1558 30.6667C29.6497 30.6667 30.7939 30.2626 31.587 29.4634C32.0552 28.9899 32.3232 28.4561 32.4819 27.9827C32.7422 28.1998 33.0779 28.3898 33.5152 28.4908C33.6816 28.5285 33.8634 28.5496 34.0589 28.5496C34.4809 28.5496 34.8336 28.4621 34.8737 28.4531L35.4511 28.3023L35.1955 27.7745C35.177 27.7324 34.695 26.6738 35.2139 25.163C35.4373 24.5101 35.5512 23.925 35.6066 23.4697C35.9701 23.6551 36.4569 23.8089 37.0867 23.8104C38.5159 23.8104 39.1458 22.7655 39.1751 22.7218L39.4569 22.2422L38.9349 22.0312C37.2315 21.3391 36.8542 19.4798 36.7787 18.4727C36.9327 18.5013 37.1083 18.5285 37.3069 18.5345H37.3932ZM38.7438 22.4759C38.7438 22.4759 38.2448 23.3249 37.1006 23.3249H37.0867C35.7129 23.3174 35.1585 22.4971 35.1585 22.4971C35.1585 22.4971 35.2386 23.5647 34.7427 25.0046C34.1467 26.7402 34.7473 27.9812 34.7473 27.9812C34.7473 27.9812 34.427 28.0656 34.0574 28.0656C33.9157 28.0656 33.7678 28.052 33.6292 28.0158C32.4819 27.749 32.1954 26.7266 32.1954 26.7266C32.1954 26.7266 32.3016 30.1811 28.188 30.1811H28.1558C28.1558 30.1811 28.5176 29.6986 28.6254 28.3098C28.821 25.7465 30.5937 25.3952 30.5937 25.3952C30.5937 25.3952 29.648 25.2791 29.2384 24.9188C28.5977 24.3503 28.6423 23.6928 28.6423 23.6928C30.09 23.6732 31.0372 23.1908 31.7595 22.372C32.5419 21.4853 32.6713 20.5309 32.6713 20.5309C32.6713 20.5309 31.8935 21.2215 30.3889 21.2215C30.2564 21.2215 30.1147 21.2154 29.9699 21.2018C29.2584 21.1461 28.7656 20.7027 28.7656 20.7027C30.3318 19.7196 31.4315 18.0037 30.4566 15.4192C29.6758 13.349 27.8 11.8019 25.9118 10.6364C25.2834 10.2518 24.9338 9.82515 24.9338 9.4572C24.9338 8.5917 26.1906 8.56455 26.7065 7.98248C27.3009 7.30698 26.9282 6.21082 26.4123 5.55189C26.4123 5.55189 26.5863 5.51718 26.8605 5.51718C27.4041 5.51718 28.3452 5.65134 29.1183 6.43543C30.1455 7.47585 29.7189 8.60828 29.7189 8.60828L29.9946 8.66108C30.1594 8.69573 30.3227 8.7018 30.492 8.7093C30.529 8.7093 30.566 8.7108 30.6029 8.7108C32.0953 8.7108 32.7622 7.18332 32.7622 7.18332C32.7622 7.18332 34.3485 9.09383 32.0137 10.5896C31.6117 10.8459 31.4345 11.0826 31.4808 11.336L31.5178 11.5019L31.684 11.5305C33.3766 11.9798 34.2329 13.1228 35.2786 14.4225C36.8665 16.3994 39.1135 16.4627 39.3907 16.4627H39.42C39.42 16.4627 38.9071 18.0474 37.3963 18.0474C37.3716 18.0474 37.3501 18.0474 37.3239 18.046C36.6294 18.0218 36.2736 17.761 36.2736 17.761C36.2736 17.761 36.001 21.3602 38.7438 22.4759Z" fill="black"/>
<path d="M34.1393 11.3466C34.8308 11.7069 35.2328 12.1894 35.5854 12.6176C35.9319 13.0353 36.2616 13.4379 36.7758 13.6053C36.9591 13.6671 37.1532 13.6958 37.3503 13.6958C38.1234 13.6958 38.8997 13.2328 39.1938 12.592L39.4895 11.9496L38.7734 11.9074C38.7395 11.9059 37.8186 11.8245 36.7929 10.7976C36.3709 10.377 35.8611 10.1553 35.3112 10.1553C34.6398 10.1553 34.1423 10.484 34.0869 10.5172L33.4277 10.9711L34.1393 11.3466ZM35.3128 10.6409C35.6577 10.6409 36.0598 10.7554 36.4402 11.1399C37.6337 12.3267 38.7441 12.393 38.7441 12.393C38.5424 12.8302 37.9572 13.2147 37.3519 13.2147C37.2118 13.2147 37.0716 13.1937 36.9314 13.1469C36.1106 12.8755 35.8164 11.6692 34.3733 10.9182C34.3733 10.9182 34.7769 10.6409 35.3128 10.6409Z" fill="black"/>
<path d="M34.4624 17.7536V17.7778C34.0466 14.4937 31.6102 12.1219 28.8996 10.6789C28.6486 10.5476 28.4176 10.4361 28.1927 10.329C29.0182 10.4542 30.3473 10.4692 31.373 9.59766C31.373 9.59766 29.8036 10.7286 26.5879 9.70176C27.4781 10.2672 29.2077 11.0649 30.7862 12.3571C34.7336 15.7527 31.9089 19.0654 31.9089 19.0654C33.3274 17.6165 33.3859 16.0634 32.9686 14.7953C33.7155 16.0121 34.1929 17.4898 34.1189 19.3113C34.0097 21.9214 32.545 24.1786 31.0033 25.9926C30.2626 26.8732 30.0963 27.9543 30.0963 27.9543C30.0963 27.9543 30.395 26.9998 31.2528 26.0182C32.9054 24.1244 34.3176 22.1566 34.5024 19.3218C34.6734 19.8361 35.3772 21.267 36.4938 21.8053C36.4969 21.8068 35.0938 20.979 34.4624 17.7536Z" fill="black"/>
<path d="M13.4261 29.9052C13.4246 29.9007 13.1381 29.4618 13.0458 28.2751C12.938 26.8533 12.3896 26.0239 11.8476 25.5474C12.0047 25.4751 12.1494 25.3861 12.2711 25.2761C13.0674 24.5748 13.0334 23.7501 13.0288 23.6612L12.998 23.2164L12.5421 23.2088C11.327 23.1891 10.4783 22.8333 9.78997 22.0537C9.6298 21.8698 9.50047 21.6873 9.39573 21.5079C9.77451 21.621 10.2381 21.7055 10.7879 21.7055C10.9358 21.7055 11.0883 21.6963 11.25 21.6858C12.1047 21.6135 12.6838 21.1158 12.7485 21.0601L13.2213 20.6349L12.6807 20.2941C11.4717 19.5372 10.2366 18.1017 11.1853 15.5866C11.7998 13.9506 13.2213 12.4683 15.5314 11.0479C16.3108 10.5654 16.7373 9.99851 16.7373 9.45566C16.7373 8.61731 16.0227 8.28709 15.4976 8.05181C15.2419 7.93271 14.9755 7.81361 14.8462 7.66736C14.4395 7.20743 14.7829 6.32389 15.1587 5.84582L15.6424 5.22615L14.86 5.07533C14.8369 5.07235 14.6321 5.03467 14.3179 5.03467C13.7326 5.03467 12.6176 5.1734 11.7058 6.0977C10.9466 6.86671 10.8465 7.68544 10.885 8.21314C10.8111 8.21921 10.7372 8.22229 10.6601 8.22671H10.577C9.43424 8.22671 8.8937 7.04163 8.87215 6.99483L8.55016 6.25448L8.02963 6.87871C8.0004 6.91649 7.23962 7.84526 7.42441 9.00784C7.5476 9.78131 8.04348 10.4478 8.89514 10.9967C8.98756 11.054 9.05226 11.1052 9.09847 11.146C7.49527 11.6571 6.5989 12.779 5.65171 13.9581L5.51463 14.1255C4.06701 15.9288 2.01863 15.9817 1.77376 15.9817L1.07617 15.9606L1.28864 16.6104C1.31329 16.6888 1.93087 18.5344 3.7851 18.5344L3.87447 18.5315C4.07003 18.5254 4.24566 18.4998 4.40277 18.4696C4.32567 19.4753 3.94835 21.3345 2.24348 22.0281L1.72293 22.2393L2.00485 22.7187C2.03252 22.7625 2.66398 23.8074 4.09619 23.8074C4.72152 23.8059 5.20815 23.652 5.5732 23.4666C5.62866 23.922 5.74259 24.507 5.96593 25.1599C6.48497 26.6708 6.00135 27.7293 5.98283 27.7716L5.72719 28.2993L6.30632 28.4501C6.34477 28.4591 6.70056 28.5465 7.12096 28.5465C7.31813 28.5465 7.4999 28.5255 7.66317 28.4877C8.1021 28.3867 8.44084 28.1968 8.69799 27.9796C8.8551 28.453 9.12465 28.9869 9.59136 29.4603C10.3859 30.2595 11.5287 30.6636 13.0226 30.6636L13.9282 30.6516L13.4261 29.9052ZM12.9887 30.1811C8.87512 30.1811 8.97994 26.7266 8.97994 26.7266C8.97994 26.7266 8.69349 27.7489 7.54609 28.0158C7.40901 28.052 7.26267 28.0656 7.11944 28.0656C6.74987 28.0656 6.43102 27.9811 6.43102 27.9811C6.43102 27.9811 7.02856 26.7402 6.43253 25.0047C5.93976 23.5646 6.01988 22.4971 6.01988 22.4971C6.01988 22.4971 5.46692 23.3174 4.09167 23.3249H4.07778C2.93352 23.3249 2.4345 22.476 2.4345 22.476C5.17584 21.3617 4.90631 17.7639 4.90631 17.7639C4.90631 17.7639 4.55062 18.0233 3.85444 18.0489C3.82979 18.0504 3.80674 18.0504 3.78207 18.0504C2.26965 18.0504 1.75836 16.4657 1.75836 16.4657H1.78915C2.06795 16.4657 4.31189 16.4023 5.8997 14.4255C6.94543 13.1258 7.80324 11.9843 9.49271 11.5335L9.66208 11.5049L9.69915 11.339C9.74536 11.0856 9.56974 10.8489 9.16782 10.5926C6.833 9.09529 8.4193 7.18631 8.4193 7.18631C8.4193 7.18631 9.08309 8.71234 10.5785 8.71234C10.6154 8.71234 10.6494 8.71076 10.6878 8.71076C10.8557 8.70169 11.0221 8.69569 11.1853 8.66104L11.461 8.60824C11.461 8.60824 11.0343 7.47586 12.0631 6.43545C12.8363 5.64988 13.7773 5.5172 14.3193 5.5172C14.5951 5.5172 14.766 5.55181 14.766 5.55181C14.2517 6.21224 13.879 7.307 14.4733 7.98251C14.9878 8.56301 16.243 8.59166 16.243 9.45716C16.243 9.82354 15.8934 10.2519 15.2651 10.6363C13.3753 11.8019 11.4995 13.3489 10.7202 15.4192C9.74688 18.0037 10.8449 19.7181 12.4143 20.7027C12.4143 20.7027 11.9215 21.146 11.2084 21.2019C11.0637 21.2154 10.9235 21.2214 10.7879 21.2214C9.28481 21.2214 8.50707 20.5308 8.50707 20.5308C8.50707 20.5308 8.6364 21.4854 9.41422 22.3719C10.1411 23.1906 11.0883 23.6732 12.536 23.6928C12.536 23.6928 12.5822 24.3503 11.9415 24.9186C11.5304 25.2775 10.5846 25.3951 10.5846 25.3951C10.5846 25.3951 12.3589 25.7465 12.5529 28.3098C12.6592 29.6985 13.018 30.1811 13.018 30.1811H12.9887Z" fill="black"/>
<path d="M3.82755 13.6976C4.02623 13.6976 4.22027 13.6689 4.40345 13.607C4.92098 13.4397 5.24899 13.0371 5.59552 12.6194C5.9498 12.1912 6.34867 11.7087 7.04011 11.3483L7.7517 10.9744L7.09094 10.5205C7.03548 10.4858 6.53959 10.1587 5.86968 10.1587C5.31834 10.1587 4.80705 10.3788 4.38654 10.8009C3.36084 11.8263 2.44143 11.9092 2.40751 11.9108L1.69141 11.9514L1.9856 12.5953C2.2812 13.2331 3.05588 13.6976 3.82755 13.6976ZM4.73921 11.1418C5.12117 10.7572 5.52315 10.6427 5.86968 10.6427C6.40251 10.6427 6.80601 10.92 6.80601 10.92C5.36453 11.6725 5.06883 12.8774 4.24483 13.1487C4.10936 13.1954 3.96765 13.2166 3.82755 13.2166C3.22225 13.2166 2.63699 12.8336 2.4368 12.3948C2.4368 12.3933 3.54563 12.3269 4.73921 11.1418Z" fill="black"/>
<path d="M7.05998 19.3127C6.98299 17.4912 7.46046 16.0135 8.20889 14.7967C7.79151 16.0648 7.84852 17.6179 9.26852 19.067C9.26852 19.067 6.44392 15.7542 10.3927 12.3585C11.9729 11.0663 13.7009 10.2686 14.5896 9.70315C11.3754 10.73 9.80594 9.59912 9.80594 9.59912C10.8316 10.4707 12.1608 10.4556 12.9863 10.329C12.763 10.436 12.5289 10.5476 12.2808 10.6787C9.5673 12.1217 7.13235 14.4936 6.71497 17.7777V17.7521C6.08512 20.9774 4.68359 21.8052 4.68359 21.8052C5.79867 21.2669 6.50099 19.8374 6.67189 19.3218C6.85829 22.1566 8.27047 24.1243 9.92302 26.0182C10.7808 26.9997 11.0827 27.9542 11.0827 27.9542C11.0827 27.9542 10.9149 26.873 10.171 25.9925C8.63243 24.1816 7.16778 21.9228 7.05998 19.3127Z" fill="black"/>
<path d="M19.6602 12.6675V13.3189C19.8897 13.0459 20.3332 13.1018 20.3332 13.1018V14.0412C20.3332 14.0412 20.3178 14.5026 20.1499 14.7031H20.6304H21.1094C20.9446 14.5041 20.9276 14.0412 20.9276 14.0412V13.1018C20.9276 13.1018 21.3712 13.0459 21.5992 13.3189V12.6675H20.6304H19.6602Z" fill="black"/>
<path d="M19.2479 8.80433C19.5543 9.04268 19.7315 9.08183 19.7376 9.0864L19.8578 9.14063V8.5269L18.7305 8.0625C18.7305 8.064 18.7412 8.4183 19.2479 8.80433Z" fill="black"/>
<path d="M21.9306 8.80433C22.4404 8.4183 22.4496 8.0625 22.4496 8.0625L21.3223 8.5269V9.14063L21.4408 9.0864C21.4486 9.08183 21.6241 9.04268 21.9306 8.80433Z" fill="black"/>
<path d="M23.9606 6.30576C23.9606 5.37542 22.3605 4.53857 20.594 4.53857H20.5924H20.5879H20.5832C18.8167 4.53857 17.2165 5.37542 17.2165 6.30576L17.252 6.53493L17.9573 10.4991L17.249 10.9017L15.4162 11.9497H15.4224C15.4224 11.9497 15.0097 12.1562 14.8186 12.2844C14.121 12.7594 13.9732 13.4515 14.3782 13.738C14.4783 13.174 14.9342 12.583 15.7873 12.583C16.4019 12.583 16.87 12.8935 17.249 13.3595C17.346 13.4771 17.4384 13.6023 17.5246 13.738C17.6308 13.9083 17.7371 14.0577 17.8434 14.2024H13.123C13.4696 14.8855 13.7991 15.6093 13.7991 16.3948V26.6241C13.7991 29.1 15.7443 30.2821 17.848 30.2821C19.4743 30.2821 19.6931 30.2098 20.591 31.0843C21.4842 30.2083 21.7029 30.2821 23.3308 30.2821C25.436 30.2821 27.3782 29.1 27.3782 26.6241V16.3948C27.3782 15.6093 27.7078 14.8855 28.0558 14.2024H23.3338C23.4386 14.0591 23.5449 13.9083 23.651 13.738C23.7389 13.6023 23.8297 13.4771 23.9252 13.3595C24.3071 12.8921 24.7738 12.583 25.3883 12.583C26.2415 12.583 26.6959 13.1725 26.7975 13.738C27.2026 13.4515 27.0562 12.7594 26.3539 12.2844C26.1661 12.1562 25.7532 11.9497 25.7532 11.9497H25.7595L23.9268 10.9017L23.2214 10.4991L23.9268 6.53493L23.9606 6.30576ZM17.9111 6.76717L20.3907 7.59043V11.4038L18.5657 10.4614L17.9111 6.76717ZM18.424 14.8673C18.8306 15.2638 19.2295 15.5097 19.6083 15.6454C19.559 15.8369 19.4944 16.232 19.6777 16.6255C19.827 16.9421 20.0981 17.1865 20.4877 17.3493C20.5308 17.7414 20.7834 18.3309 21.4842 18.5918C21.1777 18.8948 20.8789 19.1798 20.7572 19.2959L17.9157 19.2522C17.8511 19.2205 17.7417 19.1497 17.6925 19.0486C17.6863 19.0351 17.6771 19.0275 17.6725 19.0124L18.136 19.0863C18.1468 19.0878 18.156 19.0878 18.1653 19.0878C18.2546 19.0878 18.3331 19.0275 18.3486 18.937C18.3639 18.836 18.2947 18.744 18.1946 18.7289L17.6247 18.6415L18.2577 16.5018L17.6586 15.2669L16.6976 16.2622L16.639 18.4876L15.9938 18.3882C15.8936 18.3685 15.7981 18.441 15.7813 18.5389C15.7658 18.637 15.8335 18.7289 15.9352 18.7471L16.2062 18.7877C16.1093 18.8421 16.0462 18.8842 16.0384 18.8902L15.9829 18.928L15.9675 18.9944C15.8105 19.6186 16.1662 20.2112 16.5498 20.4766L16.5359 20.5549C16.5205 20.6515 16.542 20.7449 16.6006 20.8234C16.656 20.9033 16.7422 20.9515 16.8377 20.9681C16.8578 20.9711 16.8792 20.9726 16.8978 20.9726C17.0641 20.9726 17.2089 20.8595 17.2505 20.6953C17.3937 20.7118 17.5246 20.7148 17.6139 20.7148H17.6894L21.418 21.3737L21.4811 21.3331C21.7783 21.1294 22.9103 20.3213 23.2815 20.0543C23.3831 20.1403 23.497 20.2188 23.6357 20.2835C23.5155 20.6785 23.5079 21.2863 23.9838 21.7658H14.4814V16.3963C14.4814 15.8761 14.3259 15.3529 14.1426 14.8704H18.424V14.8673ZM23.0319 19.78C22.6547 20.0514 21.6844 20.7449 21.3333 20.9862L17.945 20.3906C17.9528 20.3605 17.9604 20.3318 17.9682 20.3017C18.0128 20.1297 18.0575 19.8945 18.0606 19.6186L20.9082 19.6639L20.9621 19.6095C21.0052 19.5673 21.9078 18.7138 22.3682 18.2223C22.4775 18.3565 22.6146 18.4847 22.7932 18.5977C22.7316 18.9235 22.7578 19.3879 23.0319 19.78ZM17.3598 19.2054C17.4399 19.3698 17.5846 19.4799 17.6848 19.5417C17.6817 19.6954 17.6663 19.9352 17.6247 20.1463C17.6154 20.1931 17.6032 20.2368 17.5892 20.2805C17.5816 20.3077 17.5739 20.3303 17.5677 20.3484C17.4183 20.3484 17.1241 20.3303 16.8839 20.2444C16.6175 20.1478 16.2202 19.6699 16.3125 19.1437C16.4281 19.0742 16.6945 18.928 16.944 18.928C17.1365 18.9265 17.2674 19.0154 17.3598 19.2054ZM17.0071 18.5435L17.0641 16.4068L17.5538 15.8987L17.8619 16.529L17.2551 18.5797L17.0071 18.5435ZM23.0012 29.6202C22.8164 29.6202 22.6454 29.6232 22.4914 29.6293L22.8949 28.4003C22.9581 28.2299 22.6392 28.0113 22.5083 27.8198C22.707 27.942 23.2214 28.2088 23.4694 28.3159C23.4432 28.3551 23.0012 29.6202 23.0012 29.6202ZM24.2671 28.2239L24.0038 29.569C23.8359 29.5915 23.6573 29.6035 23.474 29.6111L23.7512 28.3174C23.8343 27.9328 22.7794 27.8137 22.2589 27.0583C22.0047 27.3388 21.5258 27.4218 21.0453 27.4218C20.6064 27.4218 20.1674 27.3523 19.9009 27.3011C19.8332 27.2906 19.7685 27.283 19.7054 27.283C19.5514 27.283 19.4112 27.3298 19.3142 27.4896L19.2371 27.6163L17.8003 27.2845L17.443 27.8635C17.3922 27.9571 17.389 28.037 17.4707 28.1243L17.5677 28.2285C17.5015 28.4335 17.2028 28.7426 17.2028 28.7426L16.9887 28.4817C16.8192 28.2963 16.847 27.9586 17.0241 27.6449L17.5939 26.7025L18.8106 26.8744L18.6212 26.4522C18.3671 25.8943 18.7536 25.1841 18.7952 24.7754C18.7813 24.8991 18.6658 24.9262 18.5303 24.9262C18.4071 24.9262 18.27 24.9036 18.1791 24.9036C18.1437 24.9036 18.1129 24.9066 18.096 24.9187L17.7664 25.1147L17.5061 24.89C17.4753 24.8463 17.4646 24.7453 17.5415 24.6699L18.1437 24.0094L17.4323 23.1967L18.4286 23.6868L18.732 23.3264C18.8153 23.4064 18.7798 23.6159 18.7798 23.6159C19.0909 23.6234 19.9625 24.0955 20.0088 25.1962C20.0118 25.2292 20.0118 25.267 20.0118 25.3031C20.0118 25.3031 20.0196 25.3168 20.035 25.3393C20.0966 25.4224 20.2659 25.6349 20.4815 25.6545L21.8584 25.7872H21.8645C22.0155 25.7872 22.3159 25.6138 22.7008 25.6138C22.9103 25.6138 23.1444 25.6666 23.3939 25.8204C23.3939 25.8204 23.5186 25.7239 23.7219 25.7133C23.7373 25.7118 23.7543 25.7118 23.7697 25.7118C24.3873 25.7118 24.6429 26.2577 24.9741 26.7115C25.2236 27.0568 25.5562 27.5695 25.5562 27.5695C25.433 27.7127 25.319 27.7912 25.128 27.7912C25.0758 27.7912 25.0156 27.7866 24.9509 27.7746C24.2886 27.6554 24.1933 26.3225 23.8159 26.2169C23.7959 26.2109 23.7744 26.2094 23.7559 26.2094C23.6341 26.2094 23.5803 26.315 23.5803 26.315C23.7527 26.7688 23.6526 26.9528 23.8375 27.3026C23.976 27.562 24.2224 27.7761 24.3241 27.8771C24.3241 27.8801 24.2964 28.0762 24.2671 28.2239ZM16.8732 26.9512L16.9363 27.1066C16.8947 27.2423 16.4173 27.4353 16.4173 27.4353L16.314 27.2151C16.2047 26.9799 16.2278 26.5834 16.5605 26.3406L17.3336 25.8792L18.153 26.0495C18.1376 26.3044 18.2931 26.4944 18.2931 26.4944L17.4337 26.3331L16.9194 26.6814C16.8331 26.7402 16.8269 26.8503 16.8732 26.9512ZM24.3965 29.4951L24.6322 28.2917C24.6444 28.2209 24.6598 28.138 24.6706 28.0686C24.7369 28.0958 24.8077 28.1184 24.8847 28.132C24.9725 28.1485 25.0541 28.156 25.128 28.156C25.4885 28.156 25.6979 27.9706 25.838 27.8122L26.0198 27.6057L25.8719 27.3796C25.8581 27.3569 25.5316 26.8503 25.279 26.5034C25.2297 26.4356 25.1819 26.3677 25.1342 26.2939C24.8478 25.8746 24.4889 25.3485 23.7697 25.3485L23.705 25.35C23.5864 25.3575 23.4848 25.3801 23.4032 25.4102C23.1767 25.3062 22.9442 25.2535 22.7023 25.2535C22.4051 25.2535 22.1541 25.3334 21.9878 25.3891C21.94 25.4027 21.8969 25.4178 21.8631 25.4239L20.5185 25.2941C20.5016 25.2912 20.4461 25.2595 20.3799 25.1811V25.175L20.671 25.0604C20.5894 24.112 19.6592 23.5285 19.1402 23.3309C19.1171 23.2359 19.0709 23.1409 18.9893 23.0641L18.6997 22.7956L18.4455 23.0942L18.3209 23.2465L16.4389 22.4895L17.6632 23.9944L17.1796 24.7106C17.0025 24.8946 17.1981 25.0786 17.1981 25.0786L17.697 25.4148L18.2146 25.2263C18.233 25.2263 18.2485 25.2309 18.2654 25.2323C18.2408 25.3092 18.2084 25.6108 18.1868 25.6952L17.2889 25.5218L16.3449 26.0436C15.8597 26.3919 15.7935 26.9694 15.9738 27.3645L16.0784 27.589L16.2278 27.9058L16.5574 27.7715C16.562 27.77 16.5667 27.7685 16.5697 27.7656C16.4511 28.1365 16.4989 28.4893 16.7114 28.7215L16.9116 28.9688L17.1781 29.299L17.4707 28.9914C17.557 28.9069 17.8357 28.6009 17.922 28.3385L17.9851 28.1379L17.8419 27.9841L17.8187 27.9571L17.979 27.6976L19.1509 27.9676L19.4143 28.0264L19.5544 27.8002L19.6315 27.6765C19.6453 27.6509 19.6499 27.6463 19.7039 27.6463C19.7454 27.6463 19.787 27.6509 19.8317 27.66C20.2736 27.7414 20.6817 27.7822 21.0437 27.7822C21.3948 27.7822 21.6043 27.7685 21.8553 27.6871C21.8553 27.6871 22.4852 28.3867 22.5068 28.4139L22.1218 29.578L22.1048 29.6488C21.3748 29.7061 21.0191 29.863 20.5894 30.2836C19.9656 29.6774 19.5236 29.6142 17.8465 29.6142C15.8397 29.6142 14.4799 28.4622 14.4799 26.6226V22.1247H26.6959L26.699 26.6226C26.7004 28.1153 25.8057 29.1557 24.3965 29.4951ZM27.0377 14.8673C26.8515 15.3499 26.6959 15.8731 26.6959 16.3933L26.6975 19.7498C25.9812 19.6322 25.8966 18.8767 25.8935 18.8436L25.8796 18.6898L25.7256 18.6762C25.4145 18.6475 25.2081 18.5178 25.0341 18.352C24.683 18.0082 24.6814 17.4503 24.683 17.4457C24.6784 17.4744 24.2964 17.9976 24.74 18.5691C24.9262 18.8104 25.1958 18.9582 25.5454 19.017C25.627 19.4362 25.9458 20.0272 26.6975 20.1177V21.7612H24.5844C23.6095 21.2305 24.0222 20.2956 24.0422 20.2564L24.1254 20.0785L23.9391 20.0091C22.8841 19.6261 23.1737 18.5947 23.1891 18.551L23.2321 18.4002L23.089 18.3339C22.2172 17.9388 22.3359 16.8728 22.3467 16.8291C22.0787 17.0416 21.9816 17.4759 22.1664 17.9011C22.0663 18.0127 21.9324 18.1484 21.786 18.2962C20.8835 18.0716 20.8559 17.2588 20.8559 17.2212L20.8542 17.0959L20.7357 17.0507C20.383 16.9225 20.1412 16.7311 20.0226 16.4731C19.8887 16.1883 19.9363 15.8897 19.9734 15.7464C20.0765 15.769 20.1797 15.7857 20.2783 15.7932C20.3799 15.8037 20.4846 15.8098 20.5894 15.8098H20.5956H20.6032C20.708 15.8098 20.8112 15.8037 20.9128 15.7932C21.4749 15.7389 22.1048 15.5022 22.7609 14.8658H27.0377V14.8673ZM23.7451 11.4746L24.5797 11.9497H24.5921L24.8016 12.0688C24.3303 12.1969 23.9699 12.4276 23.6681 12.7307C23.6573 12.7398 23.6465 12.7519 23.6357 12.7624C23.5664 12.8347 23.497 12.9132 23.4324 12.9931C23.4201 13.0082 23.4078 13.0248 23.3939 13.0414C23.3292 13.1227 23.2692 13.2058 23.2106 13.2931C23.2014 13.3083 23.1906 13.3234 23.1798 13.3369C23.1105 13.4379 23.0443 13.5465 22.9781 13.658C22.3836 14.6608 21.4349 15.2594 20.591 15.2609C19.7485 15.2594 18.7998 14.6608 18.2053 13.658C18.1406 13.5494 18.076 13.444 18.0066 13.3414C17.9928 13.3218 17.9804 13.3022 17.9682 13.2856C17.9096 13.2027 17.8511 13.1212 17.791 13.0444C17.7757 13.0233 17.7617 13.0066 17.7464 12.9886C17.6817 12.9116 17.6154 12.8347 17.5492 12.7639C17.5354 12.7534 17.5261 12.7398 17.5123 12.7277C17.2089 12.4246 16.85 12.1954 16.3772 12.0688L16.5897 11.9497H16.599L17.4337 11.4746L18.2915 10.9937L20.5832 12.215L20.5879 12.2105L20.594 12.215L22.8856 10.9937L23.7451 11.4746ZM22.6146 10.4629L20.7881 11.4053V7.59043L23.2661 6.76717L22.6146 10.4629ZM20.5894 7.17126L17.8726 6.12032C18.1037 5.58504 19.1694 5.12959 20.5894 5.1281C22.0109 5.12959 23.0766 5.58504 23.3061 6.12032L20.5894 7.17126Z" fill="black"/>
<path d="M54.2314 23.1295V17.0919H57.8486V14.8948H47.9805V17.0919H51.5975V23.1295H54.2314ZM61.4486 19.6869V14.8948H58.9026V23.1295H61.1501L65.5398 18.3375V23.1295H68.0859V14.8948H65.8383L61.4486 19.6869ZM76.6514 20.0675V23.1295H79.1977V14.8948H76.6514V17.905H72.5601V14.8948H70.0141V23.1295H72.5601V20.0675H76.6514ZM86.2878 23.1295C86.8671 23.1295 87.3938 23.0777 87.8856 22.9393C89.2033 22.576 90.0627 21.5206 90.0627 20.0848C90.0627 18.7181 89.3258 17.7667 88.1497 17.3341C87.5864 17.1265 86.9203 17.1092 86.2878 17.1092H83.6714V14.8948H81.1259V23.1295H86.2878ZM85.8485 19.0468C86.2002 19.0468 86.5336 19.0468 86.832 19.1506C87.2537 19.289 87.4996 19.635 87.4996 20.0502C87.4996 20.4827 87.2538 20.846 86.8495 21.019C86.5686 21.1401 86.2878 21.1401 85.8485 21.1401H83.6714V19.0468H85.8485ZM94.6278 20.0156L97.6658 23.1295H101.054L96.8231 18.8392L100.896 14.8948H97.7008L94.6278 17.9915H93.9259V14.8948H91.3804V23.1295H93.9259V20.0156H94.6278ZM106.293 14.67C102.869 14.67 100.815 16.5729 100.815 19.0294C100.815 21.4861 102.869 23.3891 106.293 23.3891C109.7 23.3891 111.755 21.4861 111.755 19.0294C111.755 16.5729 109.7 14.67 106.293 14.67ZM106.293 21.3823C104.59 21.3823 103.502 20.3789 103.502 19.0294C103.502 17.6802 104.59 16.694 106.293 16.694C107.979 16.694 109.085 17.6802 109.085 19.0294C109.085 20.3789 107.979 21.3823 106.293 21.3823ZM120.234 14.4277H117.688V15.2581C114.492 15.3273 112.577 16.6594 112.577 19.0122C112.577 21.3649 114.492 22.5933 117.688 22.6625V23.4929H120.234V22.6625C123.446 22.5933 125.361 21.3649 125.361 19.0122C125.361 16.6594 123.446 15.3273 120.234 15.2581V14.4277ZM117.688 20.8979C115.931 20.8287 115.159 20.1194 115.159 19.0122C115.159 17.905 115.931 17.1092 117.688 17.0401V20.8979ZM120.234 17.0401C122.008 17.1092 122.762 17.905 122.762 19.0122C122.762 20.1194 122.008 20.8287 120.234 20.8979V17.0401ZM133.831 14.4277H131.285V15.2581C128.089 15.3273 126.176 16.6594 126.176 19.0122C126.176 21.3649 128.089 22.5933 131.285 22.6625V23.4929H133.831V22.6625C137.045 22.5933 138.959 21.3649 138.959 19.0122C138.959 16.6594 137.045 15.3273 133.831 15.2581V14.4277ZM131.285 20.8979C129.529 20.8287 128.757 20.1194 128.757 19.0122C128.757 17.905 129.529 17.1092 131.285 17.0401V20.8979ZM133.831 17.0401C135.605 17.1092 136.36 17.905 136.36 19.0122C136.36 20.1194 135.605 20.8287 133.831 20.8979V17.0401Z" fill="black"/>
</g>
<defs>
<clipPath id="clip0_1057_877">
<rect width="139" height="36" fill="white"/>
</clipPath>
</defs>
</svg>
